# MagicaVoxel @ Ephtracy

# material
mtllib JungleHouse.mtl
usemtl palette

# normals
vn -1 0 0
vn 1 0 0
vn 0 0 1
vn 0 0 -1
vn 0 -1 0
vn 0 1 0

# texcoords
vt 0.310547 0.5
vt 0.341797 0.5
vt 0.560547 0.5
vt 0.748047 0.5
vt 0.935547 0.5

# verts
v -4 4 4
v -4 4 -4
v -4 5 4
v -4 5 -4
v -3 0 3
v -3 0 -3
v -3 2 2
v -3 2 -1
v -3 3 2
v -3 3 -1
v -3 4 3
v -3 4 -3
v -3 5 4
v -3 5 -4
v -3 6 4
v -3 6 1
v -3 6 -2
v -3 6 -4
v -3 10 1
v -3 10 -2
v -2 6 4
v -2 6 1
v -2 6 -2
v -2 6 -4
v -2 7 4
v -2 7 1
v -2 7 -2
v -2 7 -4
v -1 7 4
v -1 7 1
v -1 7 -0
v -1 7 -1
v -1 7 -2
v -1 7 -4
v -1 8 4
v -1 8 1
v -1 8 -0
v -1 8 -1
v -1 8 -2
v -1 8 -4
v -1 9 -0
v -1 9 -1
v -1 10 -0
v -1 10 -1
v 1 6 4
v 1 6 3
v 1 6 2
v 1 6 -2
v 1 6 -3
v 1 6 -4
v 1 7 4
v 1 7 3
v 1 7 2
v 1 7 -2
v 1 7 -3
v 1 7 -4
v 2 0 2
v 2 0 -2
v 2 1 2
v 2 1 -2
v 2 5 4
v 2 5 3
v 2 5 2
v 2 5 -2
v 2 5 -3
v 2 5 -4
v 2 6 4
v 2 6 3
v 2 6 2
v 2 6 -2
v 2 6 -3
v 2 6 -4
v 3 4 4
v 3 4 3
v 3 4 2
v 3 4 -2
v 3 4 -3
v 3 4 -4
v 3 5 4
v 3 5 3
v 3 5 2
v 3 5 -2
v 3 5 -3
v 3 5 -4
v -3 4 4
v -3 4 3
v -3 4 2
v -3 4 -2
v -3 4 -3
v -3 4 -4
v -3 5 4
v -3 5 3
v -3 5 2
v -3 5 -2
v -3 5 -3
v -3 5 -4
v -2 0 2
v -2 0 -2
v -2 1 2
v -2 1 -2
v -2 5 4
v -2 5 3
v -2 5 2
v -2 5 -2
v -2 5 -3
v -2 5 -4
v -2 6 4
v -2 6 3
v -2 6 2
v -2 6 -2
v -2 6 -3
v -2 6 -4
v -2 7 -0
v -2 7 -1
v -2 8 -0
v -2 8 -1
v -2 9 -0
v -2 9 -1
v -2 10 -0
v -2 10 -1
v -1 6 4
v -1 6 3
v -1 6 2
v -1 6 -2
v -1 6 -3
v -1 6 -4
v -1 7 4
v -1 7 3
v -1 7 2
v -1 7 -2
v -1 7 -3
v -1 7 -4
v 0 8 1
v 0 8 -2
v 0 10 1
v 0 10 -2
v 1 7 4
v 1 7 -4
v 1 8 4
v 1 8 -4
v 2 6 4
v 2 6 -4
v 2 7 4
v 2 7 -4
v 3 0 3
v 3 0 -3
v 3 2 2
v 3 2 -1
v 3 3 2
v 3 3 -1
v 3 4 3
v 3 4 -3
v 3 5 4
v 3 5 -4
v 3 6 4
v 3 6 -4
v 4 4 4
v 4 4 -4
v 4 5 4
v 4 5 -4
v -4 4 4
v -4 5 4
v -3 4 4
v -3 5 4
v -3 6 4
v -2 5 4
v -2 6 4
v -2 7 4
v -1 6 4
v -1 7 4
v -1 8 4
v 1 6 4
v 1 7 4
v 1 8 4
v 2 5 4
v 2 6 4
v 2 7 4
v 3 4 4
v 3 5 4
v 3 6 4
v 4 4 4
v 4 5 4
v -3 0 3
v -3 4 3
v -3 5 3
v -2 2 3
v -2 4 3
v -2 5 3
v -2 6 3
v -1 6 3
v -1 7 3
v 0 2 3
v 0 4 3
v 1 0 3
v 1 3 3
v 1 6 3
v 1 7 3
v 2 0 3
v 2 3 3
v 2 5 3
v 2 6 3
v 3 0 3
v 3 4 3
v 3 5 3
v -3 6 1
v -3 10 1
v -2 6 1
v -2 7 1
v -1 7 1
v -1 8 1
v 0 8 1
v 0 10 1
v -2 7 -1
v -2 8 -1
v -2 9 -1
v -2 10 -1
v -1 7 -1
v -1 8 -1
v -1 9 -1
v -1 10 -1
v -3 4 -2
v -3 5 -2
v -2 0 -2
v -2 1 -2
v -2 5 -2
v -2 6 -2
v -1 4 -2
v -1 5 -2
v -1 6 -2
v -1 7 -2
v 1 4 -2
v 1 5 -2
v 1 6 -2
v 1 7 -2
v 2 0 -2
v 2 1 -2
v 2 5 -2
v 2 6 -2
v 3 4 -2
v 3 5 -2
v -3 4 2
v -3 5 2
v -2 0 2
v -2 1 2
v -2 5 2
v -2 6 2
v -1 6 2
v -1 7 2
v 1 0 2
v 1 1 2
v 1 6 2
v 1 7 2
v 2 0 2
v 2 1 2
v 2 5 2
v 2 6 2
v 3 4 2
v 3 5 2
v -2 7 -0
v -2 8 -0
v -2 9 -0
v -2 10 -0
v -1 7 -0
v -1 8 -0
v -1 9 -0
v -1 10 -0
v -3 6 -2
v -3 10 -2
v -2 6 -2
v -2 7 -2
v -1 7 -2
v -1 8 -2
v 0 8 -2
v 0 10 -2
v -3 0 -3
v -3 4 -3
v -3 5 -3
v -2 5 -3
v -2 6 -3
v -1 4 -3
v -1 5 -3
v -1 6 -3
v -1 7 -3
v 1 4 -3
v 1 5 -3
v 1 6 -3
v 1 7 -3
v 2 5 -3
v 2 6 -3
v 3 0 -3
v 3 4 -3
v 3 5 -3
v -4 4 -4
v -4 5 -4
v -3 4 -4
v -3 5 -4
v -3 6 -4
v -2 5 -4
v -2 6 -4
v -2 7 -4
v -1 6 -4
v -1 7 -4
v -1 8 -4
v 1 6 -4
v 1 7 -4
v 1 8 -4
v 2 5 -4
v 2 6 -4
v 2 7 -4
v 3 4 -4
v 3 5 -4
v 3 6 -4
v 4 4 -4
v 4 5 -4
v -3 0 3
v 1 0 3
v 2 0 3
v 3 0 3
v -2 0 2
v 1 0 2
v 2 0 2
v -2 0 -2
v 2 0 -2
v -3 0 -3
v 3 0 -3
v -2 1 2
v 1 1 2
v 2 1 2
v -2 1 -2
v 2 1 -2
v -4 4 4
v -3 4 4
v 3 4 4
v 4 4 4
v -3 4 3
v 3 4 3
v -3 4 -3
v 3 4 -3
v -4 4 -4
v -3 4 -4
v 3 4 -4
v 4 4 -4
v -3 5 4
v -2 5 4
v 2 5 4
v 3 5 4
v -3 5 3
v -2 5 3
v 2 5 3
v 3 5 3
v -3 5 2
v -2 5 2
v 2 5 2
v 3 5 2
v -3 5 -2
v -2 5 -2
v 2 5 -2
v 3 5 -2
v -3 5 -3
v -2 5 -3
v 2 5 -3
v 3 5 -3
v -3 5 -4
v -2 5 -4
v 2 5 -4
v 3 5 -4
v -2 6 4
v -1 6 4
v 1 6 4
v 2 6 4
v -2 6 3
v -1 6 3
v 1 6 3
v 2 6 3
v -2 6 2
v -1 6 2
v 1 6 2
v 2 6 2
v -2 6 -2
v -1 6 -2
v 1 6 -2
v 2 6 -2
v -2 6 -3
v -1 6 -3
v 1 6 -3
v 2 6 -3
v -2 6 -4
v -1 6 -4
v 1 6 -4
v 2 6 -4
v -1 7 4
v 1 7 4
v -1 7 3
v 1 7 3
v -1 7 2
v 1 7 2
v -1 7 -2
v 1 7 -2
v -1 7 -3
v 1 7 -3
v -1 7 -4
v 1 7 -4
v -2 8 -0
v -1 8 -0
v -2 8 -1
v -1 8 -1
v -3 4 2
v 3 4 2
v -3 4 -2
v -1 4 -2
v 1 4 -2
v 3 4 -2
v -4 5 4
v -3 5 4
v 3 5 4
v 4 5 4
v -4 5 -4
v -3 5 -4
v 3 5 -4
v 4 5 -4
v -3 6 4
v -2 6 4
v 2 6 4
v 3 6 4
v -3 6 1
v -2 6 1
v -3 6 -2
v -2 6 -2
v -3 6 -4
v -2 6 -4
v 2 6 -4
v 3 6 -4
v -2 7 4
v -1 7 4
v 1 7 4
v 2 7 4
v -2 7 1
v -1 7 1
v -2 7 -0
v -1 7 -0
v -2 7 -1
v -1 7 -1
v -2 7 -2
v -1 7 -2
v -2 7 -4
v -1 7 -4
v 1 7 -4
v 2 7 -4
v -1 8 4
v 1 8 4
v -1 8 1
v 0 8 1
v -1 8 -2
v 0 8 -2
v -1 8 -4
v 1 8 -4
v -2 9 -0
v -1 9 -0
v -2 9 -1
v -1 9 -1
v -3 10 1
v 0 10 1
v -2 10 -0
v -1 10 -0
v -2 10 -1
v -1 10 -1
v -3 10 -2
v 0 10 -2

# faces
f 3/3/1 2/3/1 1/3/1
f 4/3/1 2/3/1 3/3/1
f 7/1/1 6/1/1 5/1/1
f 8/1/1 6/1/1 7/1/1
f 9/1/1 7/1/1 5/1/1
f 9/4/1 8/4/1 7/4/1
f 10/1/1 6/1/1 8/1/1
f 10/4/1 8/4/1 9/4/1
f 11/1/1 9/1/1 5/1/1
f 11/1/1 10/1/1 9/1/1
f 12/1/1 6/1/1 10/1/1
f 12/1/1 10/1/1 11/1/1
f 15/3/1 14/3/1 13/3/1
f 16/3/1 14/3/1 15/3/1
f 17/3/1 14/3/1 16/3/1
f 18/3/1 14/3/1 17/3/1
f 19/5/1 17/5/1 16/5/1
f 20/5/1 17/5/1 19/5/1
f 25/3/1 22/3/1 21/3/1
f 26/3/1 22/3/1 25/3/1
f 27/3/1 24/3/1 23/3/1
f 28/3/1 24/3/1 27/3/1
f 35/3/1 30/3/1 29/3/1
f 36/3/1 30/3/1 35/3/1
f 37/3/1 32/3/1 31/3/1
f 38/3/1 32/3/1 37/3/1
f 39/3/1 34/3/1 33/3/1
f 40/3/1 34/3/1 39/3/1
f 43/5/1 42/5/1 41/5/1
f 44/5/1 42/5/1 43/5/1
f 51/3/1 46/3/1 45/3/1
f 52/3/1 46/3/1 51/3/1
f 53/3/1 48/3/1 47/3/1
f 54/3/1 48/3/1 53/3/1
f 55/3/1 50/3/1 49/3/1
f 56/3/1 50/3/1 55/3/1
f 59/1/1 58/1/1 57/1/1
f 60/1/1 58/1/1 59/1/1
f 67/3/1 62/3/1 61/3/1
f 68/3/1 62/3/1 67/3/1
f 69/3/1 64/3/1 63/3/1
f 70/3/1 64/3/1 69/3/1
f 71/3/1 66/3/1 65/3/1
f 72/3/1 66/3/1 71/3/1
f 79/3/1 74/3/1 73/3/1
f 80/3/1 74/3/1 79/3/1
f 81/3/1 76/3/1 75/3/1
f 82/3/1 76/3/1 81/3/1
f 83/3/1 78/3/1 77/3/1
f 84/3/1 78/3/1 83/3/1
f 85/3/2 86/3/2 91/3/2
f 91/3/2 86/3/2 92/3/2
f 87/3/2 88/3/2 93/3/2
f 93/3/2 88/3/2 94/3/2
f 89/3/2 90/3/2 95/3/2
f 95/3/2 90/3/2 96/3/2
f 97/1/2 98/1/2 99/1/2
f 99/1/2 98/1/2 100/1/2
f 101/3/2 102/3/2 107/3/2
f 107/3/2 102/3/2 108/3/2
f 103/3/2 104/3/2 109/3/2
f 109/3/2 104/3/2 110/3/2
f 105/3/2 106/3/2 111/3/2
f 111/3/2 106/3/2 112/3/2
f 113/5/2 114/5/2 115/5/2
f 115/5/2 114/5/2 116/5/2
f 117/5/2 118/5/2 119/5/2
f 119/5/2 118/5/2 120/5/2
f 121/3/2 122/3/2 127/3/2
f 127/3/2 122/3/2 128/3/2
f 123/3/2 124/3/2 129/3/2
f 129/3/2 124/3/2 130/3/2
f 125/3/2 126/3/2 131/3/2
f 131/3/2 126/3/2 132/3/2
f 133/5/2 134/5/2 135/5/2
f 135/5/2 134/5/2 136/5/2
f 137/3/2 138/3/2 139/3/2
f 139/3/2 138/3/2 140/3/2
f 141/3/2 142/3/2 143/3/2
f 143/3/2 142/3/2 144/3/2
f 145/1/2 146/1/2 147/1/2
f 147/1/2 146/1/2 148/1/2
f 145/1/2 147/1/2 149/1/2
f 147/4/2 148/4/2 149/4/2
f 148/1/2 146/1/2 150/1/2
f 149/4/2 148/4/2 150/4/2
f 145/1/2 149/1/2 151/1/2
f 149/1/2 150/1/2 151/1/2
f 150/1/2 146/1/2 152/1/2
f 151/1/2 150/1/2 152/1/2
f 153/3/2 154/3/2 155/3/2
f 155/3/2 154/3/2 156/3/2
f 157/3/2 158/3/2 159/3/2
f 159/3/2 158/3/2 160/3/2
f 163/3/3 162/3/3 161/3/3
f 164/3/3 162/3/3 163/3/3
f 166/3/3 165/3/3 164/3/3
f 167/3/3 165/3/3 166/3/3
f 169/3/3 168/3/3 167/3/3
f 170/3/3 168/3/3 169/3/3
f 173/3/3 171/3/3 170/3/3
f 174/3/3 171/3/3 173/3/3
f 176/3/3 173/3/3 172/3/3
f 177/3/3 173/3/3 176/3/3
f 179/3/3 176/3/3 175/3/3
f 180/3/3 176/3/3 179/3/3
f 181/3/3 179/3/3 178/3/3
f 182/3/3 179/3/3 181/3/3
f 186/1/3 184/1/3 183/1/3
f 186/1/3 185/1/3 184/1/3
f 187/1/3 185/1/3 186/1/3
f 188/1/3 185/1/3 187/1/3
f 190/1/3 188/1/3 187/1/3
f 190/1/3 189/1/3 188/1/3
f 192/1/3 186/1/3 183/1/3
f 192/4/3 187/4/3 186/4/3
f 193/1/3 191/1/3 190/1/3
f 193/4/3 187/4/3 192/4/3
f 193/1/3 190/1/3 187/1/3
f 194/1/3 192/1/3 183/1/3
f 194/1/3 193/1/3 192/1/3
f 195/1/3 193/1/3 194/1/3
f 196/1/3 191/1/3 193/1/3
f 196/1/3 193/1/3 195/1/3
f 197/1/3 191/1/3 196/1/3
f 198/2/3 195/2/3 194/2/3
f 199/1/3 196/1/3 195/1/3
f 199/2/3 195/2/3 198/2/3
f 200/1/3 196/1/3 199/1/3
f 201/1/3 196/1/3 200/1/3
f 202/1/3 199/1/3 198/1/3
f 202/1/3 200/1/3 199/1/3
f 203/1/3 200/1/3 202/1/3
f 204/1/3 200/1/3 203/1/3
f 207/5/3 206/5/3 205/5/3
f 208/5/3 206/5/3 207/5/3
f 209/5/3 206/5/3 208/5/3
f 210/5/3 206/5/3 209/5/3
f 211/5/3 206/5/3 210/5/3
f 212/5/3 206/5/3 211/5/3
f 217/5/3 214/5/3 213/5/3
f 218/5/3 214/5/3 217/5/3
f 219/5/3 216/5/3 215/5/3
f 220/5/3 216/5/3 219/5/3
f 225/1/3 222/1/3 221/1/3
f 227/1/3 225/1/3 221/1/3
f 227/1/3 226/1/3 225/1/3
f 228/1/3 226/1/3 227/1/3
f 229/1/3 226/1/3 228/1/3
f 231/4/3 228/4/3 227/4/3
f 232/1/3 230/1/3 229/1/3
f 232/4/3 228/4/3 231/4/3
f 232/1/3 229/1/3 228/1/3
f 233/1/3 230/1/3 232/1/3
f 234/1/3 230/1/3 233/1/3
f 235/1/3 224/1/3 223/1/3
f 236/1/3 224/1/3 235/1/3
f 237/1/3 232/1/3 231/1/3
f 237/1/3 233/1/3 232/1/3
f 238/1/3 233/1/3 237/1/3
f 239/1/3 237/1/3 231/1/3
f 240/1/3 237/1/3 239/1/3
f 241/1/4 242/1/4 245/1/4
f 245/1/4 246/1/4 247/1/4
f 243/1/4 244/1/4 249/1/4
f 249/1/4 244/1/4 250/1/4
f 247/1/4 248/1/4 251/1/4
f 245/1/4 247/1/4 251/1/4
f 251/1/4 248/1/4 252/1/4
f 249/2/4 250/2/4 253/2/4
f 253/2/4 250/2/4 254/2/4
f 241/1/4 245/1/4 255/1/4
f 245/1/4 251/1/4 255/1/4
f 255/1/4 251/1/4 256/1/4
f 241/1/4 255/1/4 257/1/4
f 257/1/4 255/1/4 258/1/4
f 259/5/4 260/5/4 263/5/4
f 263/5/4 260/5/4 264/5/4
f 261/5/4 262/5/4 265/5/4
f 265/5/4 262/5/4 266/5/4
f 267/5/4 268/5/4 269/5/4
f 269/5/4 268/5/4 270/5/4
f 270/5/4 268/5/4 271/5/4
f 271/5/4 268/5/4 272/5/4
f 272/5/4 268/5/4 273/5/4
f 273/5/4 268/5/4 274/5/4
f 275/1/4 276/1/4 278/1/4
f 276/1/4 277/1/4 278/1/4
f 275/1/4 278/1/4 280/1/4
f 278/1/4 279/1/4 280/1/4
f 280/1/4 279/1/4 281/1/4
f 281/1/4 279/1/4 282/1/4
f 275/1/4 280/1/4 284/1/4
f 280/4/4 281/4/4 284/4/4
f 282/1/4 283/1/4 285/1/4
f 284/4/4 281/4/4 285/4/4
f 281/1/4 282/1/4 285/1/4
f 285/1/4 283/1/4 286/1/4
f 286/1/4 283/1/4 287/1/4
f 284/1/4 285/1/4 288/1/4
f 285/1/4 286/1/4 288/1/4
f 288/1/4 286/1/4 289/1/4
f 275/1/4 284/1/4 290/1/4
f 284/1/4 288/1/4 290/1/4
f 290/1/4 288/1/4 291/1/4
f 291/1/4 288/1/4 292/1/4
f 293/3/4 294/3/4 295/3/4
f 295/3/4 294/3/4 296/3/4
f 296/3/4 297/3/4 298/3/4
f 298/3/4 297/3/4 299/3/4
f 299/3/4 300/3/4 301/3/4
f 301/3/4 300/3/4 302/3/4
f 302/3/4 303/3/4 305/3/4
f 305/3/4 303/3/4 306/3/4
f 304/3/4 305/3/4 308/3/4
f 308/3/4 305/3/4 309/3/4
f 307/3/4 308/3/4 311/3/4
f 311/3/4 308/3/4 312/3/4
f 310/3/4 311/3/4 313/3/4
f 313/3/4 311/3/4 314/3/4
f 319/1/5 316/1/5 315/1/5
f 320/2/5 317/2/5 316/2/5
f 320/1/5 316/1/5 319/1/5
f 321/1/5 318/1/5 317/1/5
f 321/2/5 317/2/5 320/2/5
f 322/1/5 319/1/5 315/1/5
f 323/1/5 318/1/5 321/1/5
f 324/1/5 322/1/5 315/1/5
f 324/1/5 323/1/5 322/1/5
f 325/1/5 318/1/5 323/1/5
f 325/1/5 323/1/5 324/1/5
f 329/1/5 327/1/5 326/1/5
f 329/1/5 328/1/5 327/1/5
f 330/1/5 328/1/5 329/1/5
f 335/3/5 332/3/5 331/3/5
f 336/3/5 334/3/5 333/3/5
f 337/3/5 335/3/5 331/3/5
f 338/3/5 334/3/5 336/3/5
f 339/3/5 337/3/5 331/3/5
f 340/3/5 337/3/5 339/3/5
f 341/3/5 334/3/5 338/3/5
f 342/3/5 334/3/5 341/3/5
f 347/3/5 344/3/5 343/3/5
f 348/3/5 344/3/5 347/3/5
f 349/3/5 346/3/5 345/3/5
f 350/3/5 346/3/5 349/3/5
f 355/3/5 352/3/5 351/3/5
f 356/3/5 352/3/5 355/3/5
f 357/3/5 354/3/5 353/3/5
f 358/3/5 354/3/5 357/3/5
f 363/3/5 360/3/5 359/3/5
f 364/3/5 360/3/5 363/3/5
f 365/3/5 362/3/5 361/3/5
f 366/3/5 362/3/5 365/3/5
f 371/3/5 368/3/5 367/3/5
f 372/3/5 368/3/5 371/3/5
f 373/3/5 370/3/5 369/3/5
f 374/3/5 370/3/5 373/3/5
f 379/3/5 376/3/5 375/3/5
f 380/3/5 376/3/5 379/3/5
f 381/3/5 378/3/5 377/3/5
f 382/3/5 378/3/5 381/3/5
f 387/3/5 384/3/5 383/3/5
f 388/3/5 384/3/5 387/3/5
f 389/3/5 386/3/5 385/3/5
f 390/3/5 386/3/5 389/3/5
f 393/3/5 392/3/5 391/3/5
f 394/3/5 392/3/5 393/3/5
f 397/3/5 396/3/5 395/3/5
f 398/3/5 396/3/5 397/3/5
f 401/3/5 400/3/5 399/3/5
f 402/3/5 400/3/5 401/3/5
f 405/5/5 404/5/5 403/5/5
f 406/5/5 404/5/5 405/5/5
f 407/1/6 408/1/6 409/1/6
f 409/1/6 408/1/6 410/1/6
f 410/1/6 408/1/6 411/1/6
f 411/1/6 408/1/6 412/1/6
f 413/3/6 414/3/6 417/3/6
f 417/3/6 414/3/6 418/3/6
f 415/3/6 416/3/6 419/3/6
f 419/3/6 416/3/6 420/3/6
f 421/3/6 422/3/6 425/3/6
f 425/3/6 422/3/6 426/3/6
f 427/3/6 428/3/6 429/3/6
f 429/3/6 428/3/6 430/3/6
f 423/3/6 424/3/6 431/3/6
f 431/3/6 424/3/6 432/3/6
f 433/3/6 434/3/6 437/3/6
f 437/3/6 434/3/6 438/3/6
f 439/3/6 440/3/6 441/3/6
f 441/3/6 440/3/6 442/3/6
f 443/3/6 444/3/6 445/3/6
f 445/3/6 444/3/6 446/3/6
f 435/3/6 436/3/6 447/3/6
f 447/3/6 436/3/6 448/3/6
f 449/3/6 450/3/6 451/3/6
f 451/3/6 450/3/6 452/3/6
f 452/3/6 450/3/6 454/3/6
f 453/3/6 454/3/6 455/3/6
f 454/3/6 450/3/6 456/3/6
f 455/3/6 454/3/6 456/3/6
f 457/5/6 458/5/6 459/5/6
f 459/5/6 458/5/6 460/5/6
f 461/5/6 462/5/6 463/5/6
f 463/5/6 462/5/6 464/5/6
f 461/5/6 463/5/6 465/5/6
f 464/5/6 462/5/6 466/5/6
f 461/5/6 465/5/6 467/5/6
f 465/5/6 466/5/6 467/5/6
f 466/5/6 462/5/6 468/5/6
f 467/5/6 466/5/6 468/5/6
