# MagicaVoxel @ Ephtracy

# material
mtllib JungleTree2.mtl
usemtl palette

# normals
vn -1 0 0
vn 1 0 0
vn 0 0 1
vn 0 0 -1
vn 0 -1 0
vn 0 1 0

# texcoords
vt 0.310547 0.5
vt 0.595703 0.5

# verts
v -2 5 1
v -2 5 -0
v -2 6 1
v -2 6 -0
v -1 5 2
v -1 5 1
v -1 5 -0
v -1 5 -1
v -1 6 2
v -1 6 1
v -1 6 -0
v -1 6 -1
v -1 7 1
v -1 7 -0
v 0 0 2
v 0 0 -0
v 0 5 3
v 0 5 2
v 0 5 -0
v 0 5 -1
v 0 5 -2
v 0 6 3
v 0 6 2
v 0 6 1
v 0 6 -0
v 0 6 -1
v 0 6 -2
v 0 7 1
v 0 7 -0
v 0 7 -1
v 0 8 1
v 0 8 -0
v 0 9 2
v 0 9 1
v 1 7 -0
v 1 7 -1
v 1 8 1
v 1 8 -0
v 1 8 -1
v 1 9 1
v 1 9 -0
v 1 7 2
v 1 7 1
v 1 9 2
v 1 9 1
v 2 0 2
v 2 0 -0
v 2 5 3
v 2 5 2
v 2 5 -0
v 2 5 -1
v 2 5 -2
v 2 6 3
v 2 6 2
v 2 6 1
v 2 6 -0
v 2 6 -1
v 2 6 -2
v 2 7 2
v 2 7 1
v 2 7 -0
v 2 8 -0
v 2 8 -1
v 2 9 1
v 2 9 -0
v 3 5 2
v 3 5 1
v 3 5 -0
v 3 5 -1
v 3 6 2
v 3 6 1
v 3 6 -0
v 3 6 -1
v 3 7 1
v 3 7 -0
v 4 5 1
v 4 5 -0
v 4 6 1
v 4 6 -0
v 0 5 3
v 0 6 3
v 2 5 3
v 2 6 3
v -1 5 2
v -1 6 2
v 0 0 2
v 0 5 2
v 0 6 2
v 0 9 2
v 1 7 2
v 1 9 2
v 2 0 2
v 2 5 2
v 2 6 2
v 2 7 2
v 3 5 2
v 3 6 2
v -2 5 1
v -2 6 1
v -1 5 1
v -1 6 1
v -1 7 1
v 0 6 1
v 0 7 1
v 1 7 1
v 1 9 1
v 2 6 1
v 2 7 1
v 2 9 1
v 3 5 1
v 3 6 1
v 3 7 1
v 4 5 1
v 4 6 1
v 0 8 1
v 0 9 1
v 1 8 1
v 1 9 1
v -2 5 -0
v -2 6 -0
v -1 5 -0
v -1 6 -0
v -1 7 -0
v 0 0 -0
v 0 5 -0
v 0 6 -0
v 0 7 -0
v 0 8 -0
v 1 7 -0
v 1 8 -0
v 1 9 -0
v 2 0 -0
v 2 5 -0
v 2 6 -0
v 2 7 -0
v 2 8 -0
v 2 9 -0
v 3 5 -0
v 3 6 -0
v 3 7 -0
v 4 5 -0
v 4 6 -0
v -1 5 -1
v -1 6 -1
v 0 5 -1
v 0 6 -1
v 0 7 -1
v 1 7 -1
v 1 8 -1
v 2 5 -1
v 2 6 -1
v 2 8 -1
v 3 5 -1
v 3 6 -1
v 0 5 -2
v 0 6 -2
v 2 5 -2
v 2 6 -2
v 0 0 2
v 2 0 2
v 0 0 -0
v 2 0 -0
v 0 5 3
v 2 5 3
v -1 5 2
v 0 5 2
v 2 5 2
v 3 5 2
v -2 5 1
v -1 5 1
v 3 5 1
v 4 5 1
v -2 5 -0
v -1 5 -0
v 0 5 -0
v 2 5 -0
v 3 5 -0
v 4 5 -0
v -1 5 -1
v 0 5 -1
v 2 5 -1
v 3 5 -1
v 0 5 -2
v 2 5 -2
v 0 6 3
v 2 6 3
v -1 6 2
v 0 6 2
v 2 6 2
v 3 6 2
v -2 6 1
v -1 6 1
v 0 6 1
v 2 6 1
v 3 6 1
v 4 6 1
v -2 6 -0
v -1 6 -0
v 0 6 -0
v 2 6 -0
v 3 6 -0
v 4 6 -0
v -1 6 -1
v 0 6 -1
v 2 6 -1
v 3 6 -1
v 0 6 -2
v 2 6 -2
v 1 7 2
v 2 7 2
v -1 7 1
v 0 7 1
v 1 7 1
v 2 7 1
v 3 7 1
v -1 7 -0
v 0 7 -0
v 1 7 -0
v 2 7 -0
v 3 7 -0
v 0 7 -1
v 1 7 -1
v 0 8 1
v 1 8 1
v 0 8 -0
v 1 8 -0
v 2 8 -0
v 1 8 -1
v 2 8 -1
v 0 9 2
v 1 9 2
v 0 9 1
v 1 9 1
v 2 9 1
v 1 9 -0
v 2 9 -0

# faces
f 3/2/1 2/2/1 1/2/1
f 4/2/1 2/2/1 3/2/1
f 9/2/1 6/2/1 5/2/1
f 10/2/1 6/2/1 9/2/1
f 11/2/1 8/2/1 7/2/1
f 12/2/1 8/2/1 11/2/1
f 13/2/1 11/2/1 10/2/1
f 14/2/1 11/2/1 13/2/1
f 18/1/1 16/1/1 15/1/1
f 19/1/1 16/1/1 18/1/1
f 22/2/1 18/2/1 17/2/1
f 23/2/1 18/2/1 22/2/1
f 26/2/1 21/2/1 20/2/1
f 27/2/1 21/2/1 26/2/1
f 28/2/1 24/2/1 23/2/1
f 29/2/1 26/2/1 25/2/1
f 30/2/1 26/2/1 29/2/1
f 31/2/1 28/2/1 23/2/1
f 31/2/1 29/2/1 28/2/1
f 32/2/1 29/2/1 31/2/1
f 33/2/1 31/2/1 23/2/1
f 34/2/1 31/2/1 33/2/1
f 38/2/1 36/2/1 35/2/1
f 39/2/1 36/2/1 38/2/1
f 40/2/1 38/2/1 37/2/1
f 41/2/1 38/2/1 40/2/1
f 42/2/2 43/2/2 44/2/2
f 44/2/2 43/2/2 45/2/2
f 46/1/2 47/1/2 49/1/2
f 49/1/2 47/1/2 50/1/2
f 48/2/2 49/2/2 53/2/2
f 53/2/2 49/2/2 54/2/2
f 51/2/2 52/2/2 57/2/2
f 57/2/2 52/2/2 58/2/2
f 54/2/2 55/2/2 59/2/2
f 59/2/2 55/2/2 60/2/2
f 56/2/2 57/2/2 61/2/2
f 60/2/2 61/2/2 62/2/2
f 61/2/2 57/2/2 62/2/2
f 62/2/2 57/2/2 63/2/2
f 60/2/2 62/2/2 64/2/2
f 64/2/2 62/2/2 65/2/2
f 66/2/2 67/2/2 70/2/2
f 70/2/2 67/2/2 71/2/2
f 68/2/2 69/2/2 72/2/2
f 72/2/2 69/2/2 73/2/2
f 71/2/2 72/2/2 74/2/2
f 74/2/2 72/2/2 75/2/2
f 76/2/2 77/2/2 78/2/2
f 78/2/2 77/2/2 79/2/2
f 82/2/3 81/2/3 80/2/3
f 83/2/3 81/2/3 82/2/3
f 87/2/3 85/2/3 84/2/3
f 88/2/3 85/2/3 87/2/3
f 90/2/3 89/2/3 88/2/3
f 91/2/3 89/2/3 90/2/3
f 92/1/3 87/1/3 86/1/3
f 93/1/3 87/1/3 92/1/3
f 94/2/3 90/2/3 88/2/3
f 95/2/3 90/2/3 94/2/3
f 96/2/3 94/2/3 93/2/3
f 97/2/3 94/2/3 96/2/3
f 100/2/3 99/2/3 98/2/3
f 101/2/3 99/2/3 100/2/3
f 103/2/3 102/2/3 101/2/3
f 104/2/3 102/2/3 103/2/3
f 108/2/3 106/2/3 105/2/3
f 109/2/3 106/2/3 108/2/3
f 111/2/3 108/2/3 107/2/3
f 112/2/3 108/2/3 111/2/3
f 113/2/3 111/2/3 110/2/3
f 114/2/3 111/2/3 113/2/3
f 115/2/4 116/2/4 117/2/4
f 117/2/4 116/2/4 118/2/4
f 119/2/4 120/2/4 121/2/4
f 121/2/4 120/2/4 122/2/4
f 122/2/4 123/2/4 126/2/4
f 126/2/4 123/2/4 127/2/4
f 127/2/4 128/2/4 129/2/4
f 129/2/4 128/2/4 130/2/4
f 124/1/4 125/1/4 132/1/4
f 132/1/4 125/1/4 133/1/4
f 130/2/4 131/2/4 136/2/4
f 136/2/4 131/2/4 137/2/4
f 134/2/4 135/2/4 139/2/4
f 139/2/4 135/2/4 140/2/4
f 138/2/4 139/2/4 141/2/4
f 141/2/4 139/2/4 142/2/4
f 143/2/4 144/2/4 145/2/4
f 145/2/4 144/2/4 146/2/4
f 146/2/4 147/2/4 148/2/4
f 146/2/4 148/2/4 151/2/4
f 148/2/4 149/2/4 151/2/4
f 151/2/4 149/2/4 152/2/4
f 150/2/4 151/2/4 153/2/4
f 153/2/4 151/2/4 154/2/4
f 155/2/4 156/2/4 157/2/4
f 157/2/4 156/2/4 158/2/4
f 161/1/5 160/1/5 159/1/5
f 162/1/5 160/1/5 161/1/5
f 166/2/5 164/2/5 163/2/5
f 167/2/5 164/2/5 166/2/5
f 170/2/5 166/2/5 165/2/5
f 171/2/5 168/2/5 167/2/5
f 173/2/5 170/2/5 169/2/5
f 174/2/5 166/2/5 170/2/5
f 174/2/5 170/2/5 173/2/5
f 175/2/5 166/2/5 174/2/5
f 176/2/5 172/2/5 171/2/5
f 176/2/5 171/2/5 167/2/5
f 177/2/5 172/2/5 176/2/5
f 178/2/5 172/2/5 177/2/5
f 179/2/5 175/2/5 174/2/5
f 179/2/5 177/2/5 176/2/5
f 179/2/5 176/2/5 175/2/5
f 180/2/5 177/2/5 179/2/5
f 181/2/5 177/2/5 180/2/5
f 182/2/5 177/2/5 181/2/5
f 183/2/5 181/2/5 180/2/5
f 184/2/5 181/2/5 183/2/5
f 185/2/6 186/2/6 188/2/6
f 188/2/6 186/2/6 189/2/6
f 187/2/6 188/2/6 192/2/6
f 192/2/6 188/2/6 193/2/6
f 189/2/6 190/2/6 194/2/6
f 194/2/6 190/2/6 195/2/6
f 191/2/6 192/2/6 197/2/6
f 197/2/6 192/2/6 198/2/6
f 195/2/6 196/2/6 201/2/6
f 201/2/6 196/2/6 202/2/6
f 198/2/6 199/2/6 203/2/6
f 203/2/6 199/2/6 204/2/6
f 200/2/6 201/2/6 205/2/6
f 205/2/6 201/2/6 206/2/6
f 204/2/6 205/2/6 207/2/6
f 207/2/6 205/2/6 208/2/6
f 209/2/6 210/2/6 213/2/6
f 213/2/6 210/2/6 214/2/6
f 211/2/6 212/2/6 216/2/6
f 216/2/6 212/2/6 217/2/6
f 214/2/6 215/2/6 219/2/6
f 219/2/6 215/2/6 220/2/6
f 217/2/6 218/2/6 221/2/6
f 221/2/6 218/2/6 222/2/6
f 223/2/6 224/2/6 225/2/6
f 225/2/6 224/2/6 226/2/6
f 226/2/6 227/2/6 228/2/6
f 228/2/6 227/2/6 229/2/6
f 230/2/6 231/2/6 232/2/6
f 232/2/6 231/2/6 233/2/6
f 233/2/6 234/2/6 235/2/6
f 235/2/6 234/2/6 236/2/6
