# MagicaVoxel @ Ephtracy

# material
mtllib CornerBridgePillar.mtl
usemtl palette

# normals
vn -1 0 0
vn 1 0 0
vn 0 0 1
vn 0 0 -1
vn 0 -1 0
vn 0 1 0

# texcoords
vt 0.958984 0.5
vt 0.962891 0.5
vt 0.966797 0.5

# verts
v 11 1 14
v 11 1 7
v 11 1 2
v 11 1 -5
v 11 2 14
v 11 2 7
v 11 2 2
v 11 2 -5
v 11 14 14
v 11 14 -5
v 11 15 14
v 11 15 -5
v 12 2 13
v 12 2 8
v 12 2 1
v 12 2 -4
v 12 3 12
v 12 3 11
v 12 3 10
v 12 3 9
v 12 3 -0
v 12 3 -1
v 12 3 -2
v 12 3 -3
v 12 13 12
v 12 13 11
v 12 13 10
v 12 13 9
v 12 13 -0
v 12 13 -1
v 12 13 -2
v 12 13 -3
v 12 14 13
v 12 14 8
v 12 14 1
v 12 14 -4
v 16 1 12
v 16 1 10
v 16 3 12
v 16 3 11
v 16 3 10
v 16 3 9
v 16 3 -0
v 16 3 -1
v 16 3 -2
v 16 3 -3
v 16 11 12
v 16 11 11
v 16 13 10
v 16 13 9
v 16 13 -0
v 16 13 -1
v 16 13 -2
v 16 13 -3
v 16 14 11
v 16 14 10
v 23 1 14
v 23 1 7
v 23 2 14
v 23 2 7
v 24 2 13
v 24 2 8
v 24 3 12
v 24 3 11
v 24 3 10
v 24 3 9
v 24 13 12
v 24 13 11
v 24 13 10
v 24 13 9
v 24 14 13
v 24 14 12
v 24 14 10
v 24 14 8
v 28 2 12
v 28 2 10
v 28 3 12
v 28 3 11
v 28 3 10
v 28 3 9
v 28 13 12
v 28 13 11
v 28 13 10
v 28 13 9
v 28 14 12
v 28 14 10
v 29 1 12
v 29 1 10
v 29 2 12
v 29 2 10
v 12 1 12
v 12 1 10
v 12 2 12
v 12 2 10
v 13 2 12
v 13 2 10
v 13 3 12
v 13 3 11
v 13 3 10
v 13 3 9
v 13 3 -0
v 13 3 -1
v 13 3 -2
v 13 3 -3
v 13 13 12
v 13 13 11
v 13 13 10
v 13 13 9
v 13 13 -0
v 13 13 -1
v 13 13 -2
v 13 13 -3
v 13 14 12
v 13 14 10
v 17 2 13
v 17 2 8
v 17 2 1
v 17 2 -4
v 17 3 12
v 17 3 11
v 17 3 10
v 17 3 9
v 17 3 -0
v 17 3 -1
v 17 3 -2
v 17 3 -3
v 17 11 12
v 17 11 11
v 17 13 10
v 17 13 9
v 17 13 -0
v 17 13 -1
v 17 13 -2
v 17 13 -3
v 17 14 13
v 17 14 12
v 17 14 11
v 17 14 8
v 17 14 1
v 17 14 -4
v 17 14 -5
v 17 15 8
v 17 15 -5
v 18 1 14
v 18 1 7
v 18 1 2
v 18 1 -5
v 18 2 14
v 18 2 7
v 18 2 2
v 18 2 -5
v 25 1 12
v 25 1 10
v 25 3 12
v 25 3 11
v 25 3 10
v 25 3 9
v 25 13 12
v 25 13 11
v 25 13 10
v 25 13 9
v 29 2 13
v 29 2 8
v 29 3 12
v 29 3 11
v 29 3 10
v 29 3 9
v 29 13 12
v 29 13 11
v 29 13 10
v 29 13 9
v 29 14 13
v 29 14 8
v 30 1 14
v 30 1 7
v 30 2 14
v 30 2 7
v 30 14 14
v 30 14 8
v 30 15 14
v 30 15 8
v 11 1 14
v 11 2 14
v 11 14 14
v 11 15 14
v 18 1 14
v 18 2 14
v 23 1 14
v 23 2 14
v 30 1 14
v 30 2 14
v 30 14 14
v 30 15 14
v 12 2 13
v 12 14 13
v 13 3 13
v 13 13 13
v 14 3 13
v 14 13 13
v 15 3 13
v 15 13 13
v 16 3 13
v 16 13 13
v 17 2 13
v 17 14 13
v 24 2 13
v 24 14 13
v 25 3 13
v 25 13 13
v 26 3 13
v 26 13 13
v 27 3 13
v 27 13 13
v 28 3 13
v 28 13 13
v 29 2 13
v 29 14 13
v 16 11 11
v 16 14 11
v 17 11 11
v 17 14 11
v 12 1 10
v 12 2 10
v 13 2 10
v 13 3 10
v 13 13 10
v 13 14 10
v 16 1 10
v 16 3 10
v 16 13 10
v 16 14 10
v 24 13 10
v 24 14 10
v 25 1 10
v 25 3 10
v 25 13 10
v 28 2 10
v 28 3 10
v 28 13 10
v 28 14 10
v 29 1 10
v 29 2 10
v 13 3 9
v 13 13 9
v 14 3 9
v 14 13 9
v 15 3 9
v 15 13 9
v 16 3 9
v 16 13 9
v 25 3 9
v 25 13 9
v 26 3 9
v 26 13 9
v 27 3 9
v 27 13 9
v 28 3 9
v 28 13 9
v 11 1 2
v 11 2 2
v 18 1 2
v 18 2 2
v 12 2 1
v 12 14 1
v 13 3 1
v 13 13 1
v 14 3 1
v 14 13 1
v 15 3 1
v 15 13 1
v 16 3 1
v 16 13 1
v 17 2 1
v 17 14 1
v 13 3 -3
v 13 13 -3
v 14 3 -3
v 14 13 -3
v 15 3 -3
v 15 13 -3
v 16 3 -3
v 16 13 -3
v 12 1 12
v 12 2 12
v 13 2 12
v 13 3 12
v 13 13 12
v 13 14 12
v 14 3 12
v 14 13 12
v 15 3 12
v 15 13 12
v 16 1 12
v 16 3 12
v 16 11 12
v 16 13 12
v 17 11 12
v 17 14 12
v 24 13 12
v 24 14 12
v 25 1 12
v 25 3 12
v 25 13 12
v 26 3 12
v 26 13 12
v 27 3 12
v 27 13 12
v 28 2 12
v 28 3 12
v 28 13 12
v 28 14 12
v 29 1 12
v 29 2 12
v 12 2 8
v 12 14 8
v 13 3 8
v 13 13 8
v 14 3 8
v 14 13 8
v 15 3 8
v 15 13 8
v 16 3 8
v 16 13 8
v 17 2 8
v 17 14 8
v 17 15 8
v 24 2 8
v 24 14 8
v 25 3 8
v 25 13 8
v 26 3 8
v 26 13 8
v 27 3 8
v 27 13 8
v 28 3 8
v 28 13 8
v 29 2 8
v 29 14 8
v 30 14 8
v 30 15 8
v 11 1 7
v 11 2 7
v 18 1 7
v 18 2 7
v 23 1 7
v 23 2 7
v 30 1 7
v 30 2 7
v 13 3 -0
v 13 13 -0
v 14 3 -0
v 14 13 -0
v 15 3 -0
v 15 13 -0
v 16 3 -0
v 16 13 -0
v 12 2 -4
v 12 14 -4
v 13 3 -4
v 13 13 -4
v 14 3 -4
v 14 13 -4
v 15 3 -4
v 15 13 -4
v 16 3 -4
v 16 13 -4
v 17 2 -4
v 17 14 -4
v 11 1 -5
v 11 2 -5
v 11 14 -5
v 11 15 -5
v 17 14 -5
v 17 15 -5
v 18 1 -5
v 18 2 -5
v 11 1 14
v 18 1 14
v 23 1 14
v 30 1 14
v 12 1 12
v 16 1 12
v 25 1 12
v 29 1 12
v 12 1 10
v 16 1 10
v 25 1 10
v 29 1 10
v 11 1 7
v 18 1 7
v 23 1 7
v 30 1 7
v 11 1 2
v 18 1 2
v 11 1 -5
v 18 1 -5
v 12 2 12
v 13 2 12
v 28 2 12
v 29 2 12
v 12 2 10
v 13 2 10
v 28 2 10
v 29 2 10
v 13 13 10
v 16 13 10
v 25 13 10
v 28 13 10
v 13 13 9
v 14 13 9
v 15 13 9
v 16 13 9
v 25 13 9
v 26 13 9
v 27 13 9
v 28 13 9
v 13 13 -0
v 14 13 -0
v 15 13 -0
v 16 13 -0
v 13 13 -1
v 16 13 -1
v 13 13 -2
v 16 13 -2
v 13 13 -3
v 14 13 -3
v 15 13 -3
v 16 13 -3
v 11 14 14
v 30 14 14
v 12 14 13
v 17 14 13
v 24 14 13
v 29 14 13
v 13 14 12
v 17 14 12
v 24 14 12
v 28 14 12
v 16 14 11
v 17 14 11
v 13 14 10
v 16 14 10
v 24 14 10
v 28 14 10
v 12 14 8
v 17 14 8
v 24 14 8
v 29 14 8
v 30 14 8
v 12 14 1
v 17 14 1
v 12 14 -4
v 17 14 -4
v 11 14 -5
v 17 14 -5
v 11 2 14
v 18 2 14
v 23 2 14
v 30 2 14
v 12 2 13
v 17 2 13
v 24 2 13
v 29 2 13
v 12 2 8
v 17 2 8
v 24 2 8
v 29 2 8
v 11 2 7
v 18 2 7
v 23 2 7
v 30 2 7
v 11 2 2
v 18 2 2
v 12 2 1
v 17 2 1
v 12 2 -4
v 17 2 -4
v 11 2 -5
v 18 2 -5
v 13 3 10
v 16 3 10
v 25 3 10
v 28 3 10
v 13 3 9
v 14 3 9
v 15 3 9
v 16 3 9
v 25 3 9
v 26 3 9
v 27 3 9
v 28 3 9
v 13 3 -0
v 14 3 -0
v 15 3 -0
v 16 3 -0
v 13 3 -1
v 16 3 -1
v 13 3 -2
v 16 3 -2
v 13 3 -3
v 14 3 -3
v 15 3 -3
v 16 3 -3
v 16 11 12
v 17 11 12
v 16 11 11
v 17 11 11
v 24 13 12
v 25 13 12
v 24 13 11
v 25 13 11
v 24 13 10
v 25 13 10
v 11 15 14
v 30 15 14
v 17 15 8
v 30 15 8
v 11 15 -5
v 17 15 -5

# faces
f 5/2/1 2/2/1 1/2/1
f 6/2/1 2/2/1 5/2/1
f 7/2/1 4/2/1 3/2/1
f 8/2/1 4/2/1 7/2/1
f 11/1/1 10/1/1 9/1/1
f 12/1/1 10/1/1 11/1/1
f 17/2/1 14/2/1 13/2/1
f 18/2/1 14/2/1 17/2/1
f 19/2/1 14/2/1 18/2/1
f 20/2/1 14/2/1 19/2/1
f 21/2/1 16/2/1 15/2/1
f 22/2/1 16/2/1 21/2/1
f 23/2/1 16/2/1 22/2/1
f 24/2/1 16/2/1 23/2/1
f 25/2/1 17/2/1 13/2/1
f 25/3/1 18/3/1 17/3/1
f 26/2/1 19/2/1 18/2/1
f 26/3/1 18/3/1 25/3/1
f 27/3/1 20/3/1 19/3/1
f 27/2/1 19/2/1 26/2/1
f 28/2/1 14/2/1 20/2/1
f 28/3/1 20/3/1 27/3/1
f 29/2/1 21/2/1 15/2/1
f 29/3/1 22/3/1 21/3/1
f 30/2/1 23/2/1 22/2/1
f 30/3/1 22/3/1 29/3/1
f 31/3/1 24/3/1 23/3/1
f 31/2/1 23/2/1 30/2/1
f 32/2/1 16/2/1 24/2/1
f 32/3/1 24/3/1 31/3/1
f 33/2/1 27/2/1 26/2/1
f 33/2/1 25/2/1 13/2/1
f 33/2/1 26/2/1 25/2/1
f 33/2/1 28/2/1 27/2/1
f 34/2/1 14/2/1 28/2/1
f 34/2/1 28/2/1 33/2/1
f 35/2/1 31/2/1 30/2/1
f 35/2/1 30/2/1 29/2/1
f 35/2/1 32/2/1 31/2/1
f 35/2/1 29/2/1 15/2/1
f 36/2/1 16/2/1 32/2/1
f 36/2/1 32/2/1 35/2/1
f 39/2/1 38/2/1 37/2/1
f 40/2/1 38/2/1 39/2/1
f 41/2/1 38/2/1 40/2/1
f 47/3/1 40/3/1 39/3/1
f 48/2/1 41/2/1 40/2/1
f 48/3/1 40/3/1 47/3/1
f 49/3/1 42/3/1 41/3/1
f 49/2/1 41/2/1 48/2/1
f 50/3/1 42/3/1 49/3/1
f 51/3/1 44/3/1 43/3/1
f 52/2/1 45/2/1 44/2/1
f 52/3/1 44/3/1 51/3/1
f 53/3/1 46/3/1 45/3/1
f 53/2/1 45/2/1 52/2/1
f 54/3/1 46/3/1 53/3/1
f 55/2/1 49/2/1 48/2/1
f 56/2/1 49/2/1 55/2/1
f 59/2/1 58/2/1 57/2/1
f 60/2/1 58/2/1 59/2/1
f 63/2/1 62/2/1 61/2/1
f 64/2/1 62/2/1 63/2/1
f 65/2/1 62/2/1 64/2/1
f 66/2/1 62/2/1 65/2/1
f 67/2/1 63/2/1 61/2/1
f 67/3/1 64/3/1 63/3/1
f 68/2/1 65/2/1 64/2/1
f 68/3/1 64/3/1 67/3/1
f 69/3/1 66/3/1 65/3/1
f 69/2/1 65/2/1 68/2/1
f 70/2/1 62/2/1 66/2/1
f 70/3/1 66/3/1 69/3/1
f 71/2/1 67/2/1 61/2/1
f 72/2/1 67/2/1 71/2/1
f 73/2/1 70/2/1 69/2/1
f 74/2/1 62/2/1 70/2/1
f 74/2/1 70/2/1 73/2/1
f 77/2/1 76/2/1 75/2/1
f 78/2/1 76/2/1 77/2/1
f 79/2/1 76/2/1 78/2/1
f 81/3/1 78/3/1 77/3/1
f 82/2/1 79/2/1 78/2/1
f 82/3/1 78/3/1 81/3/1
f 83/3/1 80/3/1 79/3/1
f 83/2/1 79/2/1 82/2/1
f 84/3/1 80/3/1 83/3/1
f 85/2/1 82/2/1 81/2/1
f 85/2/1 83/2/1 82/2/1
f 86/2/1 83/2/1 85/2/1
f 89/2/1 88/2/1 87/2/1
f 90/2/1 88/2/1 89/2/1
f 91/2/2 92/2/2 93/2/2
f 93/2/2 92/2/2 94/2/2
f 95/2/2 96/2/2 97/2/2
f 97/2/2 96/2/2 98/2/2
f 98/2/2 96/2/2 99/2/2
f 97/3/2 98/3/2 105/3/2
f 98/2/2 99/2/2 106/2/2
f 105/3/2 98/3/2 106/3/2
f 99/3/2 100/3/2 107/3/2
f 106/2/2 99/2/2 107/2/2
f 107/3/2 100/3/2 108/3/2
f 101/3/2 102/3/2 109/3/2
f 102/2/2 103/2/2 110/2/2
f 109/3/2 102/3/2 110/3/2
f 103/3/2 104/3/2 111/3/2
f 110/2/2 103/2/2 111/2/2
f 111/3/2 104/3/2 112/3/2
f 105/2/2 106/2/2 113/2/2
f 106/2/2 107/2/2 113/2/2
f 113/2/2 107/2/2 114/2/2
f 115/2/2 116/2/2 119/2/2
f 119/2/2 116/2/2 120/2/2
f 120/2/2 116/2/2 121/2/2
f 121/2/2 116/2/2 122/2/2
f 117/2/2 118/2/2 123/2/2
f 123/2/2 118/2/2 124/2/2
f 124/2/2 118/2/2 125/2/2
f 125/2/2 118/2/2 126/2/2
f 115/2/2 119/2/2 127/2/2
f 119/3/2 120/3/2 127/3/2
f 120/2/2 121/2/2 128/2/2
f 127/3/2 120/3/2 128/3/2
f 121/3/2 122/3/2 129/3/2
f 128/2/2 121/2/2 129/2/2
f 122/2/2 116/2/2 130/2/2
f 129/3/2 122/3/2 130/3/2
f 117/2/2 123/2/2 131/2/2
f 123/3/2 124/3/2 131/3/2
f 124/2/2 125/2/2 132/2/2
f 131/3/2 124/3/2 132/3/2
f 125/3/2 126/3/2 133/3/2
f 132/2/2 125/2/2 133/2/2
f 126/2/2 118/2/2 134/2/2
f 133/3/2 126/3/2 134/3/2
f 115/2/2 127/2/2 135/2/2
f 135/2/2 127/2/2 136/2/2
f 128/2/2 129/2/2 137/2/2
f 129/2/2 130/2/2 137/2/2
f 130/2/2 116/2/2 138/2/2
f 137/2/2 130/2/2 138/2/2
f 132/2/2 133/2/2 139/2/2
f 131/2/2 132/2/2 139/2/2
f 133/2/2 134/2/2 139/2/2
f 117/2/2 131/2/2 139/2/2
f 134/2/2 118/2/2 140/2/2
f 139/2/2 134/2/2 140/2/2
f 140/1/2 141/1/2 142/1/2
f 139/1/2 140/1/2 142/1/2
f 138/1/2 139/1/2 142/1/2
f 142/1/2 141/1/2 143/1/2
f 144/2/2 145/2/2 148/2/2
f 148/2/2 145/2/2 149/2/2
f 146/2/2 147/2/2 150/2/2
f 150/2/2 147/2/2 151/2/2
f 152/2/2 153/2/2 154/2/2
f 154/2/2 153/2/2 155/2/2
f 155/2/2 153/2/2 156/2/2
f 154/3/2 155/3/2 158/3/2
f 155/2/2 156/2/2 159/2/2
f 158/3/2 155/3/2 159/3/2
f 156/3/2 157/3/2 160/3/2
f 159/2/2 156/2/2 160/2/2
f 160/3/2 157/3/2 161/3/2
f 162/2/2 163/2/2 164/2/2
f 164/2/2 163/2/2 165/2/2
f 165/2/2 163/2/2 166/2/2
f 166/2/2 163/2/2 167/2/2
f 162/2/2 164/2/2 168/2/2
f 164/3/2 165/3/2 168/3/2
f 165/2/2 166/2/2 169/2/2
f 168/3/2 165/3/2 169/3/2
f 166/3/2 167/3/2 170/3/2
f 169/2/2 166/2/2 170/2/2
f 167/2/2 163/2/2 171/2/2
f 170/3/2 167/3/2 171/3/2
f 169/2/2 170/2/2 172/2/2
f 168/2/2 169/2/2 172/2/2
f 170/2/2 171/2/2 172/2/2
f 162/2/2 168/2/2 172/2/2
f 171/2/2 163/2/2 173/2/2
f 172/2/2 171/2/2 173/2/2
f 174/2/2 175/2/2 176/2/2
f 176/2/2 175/2/2 177/2/2
f 178/1/2 179/1/2 180/1/2
f 180/1/2 179/1/2 181/1/2
f 186/2/3 183/2/3 182/2/3
f 187/2/3 183/2/3 186/2/3
f 190/2/3 189/2/3 188/2/3
f 191/2/3 189/2/3 190/2/3
f 192/1/3 185/1/3 184/1/3
f 193/1/3 185/1/3 192/1/3
f 196/2/3 195/2/3 194/2/3
f 197/2/3 195/2/3 196/2/3
f 198/2/3 196/2/3 194/2/3
f 198/3/3 197/3/3 196/3/3
f 199/2/3 195/2/3 197/2/3
f 199/3/3 197/3/3 198/3/3
f 200/2/3 198/2/3 194/2/3
f 200/2/3 199/2/3 198/2/3
f 201/2/3 195/2/3 199/2/3
f 201/2/3 199/2/3 200/2/3
f 202/2/3 200/2/3 194/2/3
f 202/3/3 201/3/3 200/3/3
f 203/2/3 195/2/3 201/2/3
f 203/3/3 201/3/3 202/3/3
f 204/2/3 202/2/3 194/2/3
f 204/2/3 203/2/3 202/2/3
f 205/2/3 195/2/3 203/2/3
f 205/2/3 203/2/3 204/2/3
f 208/2/3 207/2/3 206/2/3
f 209/2/3 207/2/3 208/2/3
f 210/2/3 208/2/3 206/2/3
f 210/3/3 209/3/3 208/3/3
f 211/2/3 207/2/3 209/2/3
f 211/3/3 209/3/3 210/3/3
f 212/2/3 210/2/3 206/2/3
f 212/2/3 211/2/3 210/2/3
f 213/2/3 207/2/3 211/2/3
f 213/2/3 211/2/3 212/2/3
f 214/2/3 212/2/3 206/2/3
f 214/3/3 213/3/3 212/3/3
f 215/2/3 207/2/3 213/2/3
f 215/3/3 213/3/3 214/3/3
f 216/2/3 214/2/3 206/2/3
f 216/2/3 215/2/3 214/2/3
f 217/2/3 207/2/3 215/2/3
f 217/2/3 215/2/3 216/2/3
f 220/2/3 219/2/3 218/2/3
f 221/2/3 219/2/3 220/2/3
f 224/2/3 223/2/3 222/2/3
f 228/2/3 224/2/3 222/2/3
f 228/2/3 225/2/3 224/2/3
f 229/2/3 225/2/3 228/2/3
f 230/2/3 227/2/3 226/2/3
f 231/2/3 227/2/3 230/2/3
f 236/2/3 233/2/3 232/2/3
f 237/2/3 235/2/3 234/2/3
f 238/2/3 235/2/3 237/2/3
f 239/2/3 233/2/3 236/2/3
f 240/2/3 233/2/3 239/2/3
f 241/2/3 237/2/3 234/2/3
f 242/2/3 237/2/3 241/2/3
f 245/3/3 244/3/3 243/3/3
f 246/3/3 244/3/3 245/3/3
f 247/2/3 246/2/3 245/2/3
f 248/2/3 246/2/3 247/2/3
f 249/3/3 248/3/3 247/3/3
f 250/3/3 248/3/3 249/3/3
f 253/3/3 252/3/3 251/3/3
f 254/3/3 252/3/3 253/3/3
f 255/2/3 254/2/3 253/2/3
f 256/2/3 254/2/3 255/2/3
f 257/3/3 256/3/3 255/3/3
f 258/3/3 256/3/3 257/3/3
f 261/2/3 260/2/3 259/2/3
f 262/2/3 260/2/3 261/2/3
f 265/2/3 264/2/3 263/2/3
f 266/2/3 264/2/3 265/2/3
f 267/2/3 265/2/3 263/2/3
f 267/3/3 266/3/3 265/3/3
f 268/2/3 264/2/3 266/2/3
f 268/3/3 266/3/3 267/3/3
f 269/2/3 267/2/3 263/2/3
f 269/2/3 268/2/3 267/2/3
f 270/2/3 264/2/3 268/2/3
f 270/2/3 268/2/3 269/2/3
f 271/2/3 269/2/3 263/2/3
f 271/3/3 270/3/3 269/3/3
f 272/2/3 264/2/3 270/2/3
f 272/3/3 270/3/3 271/3/3
f 273/2/3 271/2/3 263/2/3
f 273/2/3 272/2/3 271/2/3
f 274/2/3 264/2/3 272/2/3
f 274/2/3 272/2/3 273/2/3
f 277/3/3 276/3/3 275/3/3
f 278/3/3 276/3/3 277/3/3
f 279/2/3 278/2/3 277/2/3
f 280/2/3 278/2/3 279/2/3
f 281/3/3 280/3/3 279/3/3
f 282/3/3 280/3/3 281/3/3
f 283/2/4 284/2/4 285/2/4
f 285/2/4 286/2/4 289/2/4
f 286/3/4 287/3/4 289/3/4
f 287/2/4 288/2/4 290/2/4
f 289/3/4 287/3/4 290/3/4
f 285/2/4 289/2/4 291/2/4
f 289/2/4 290/2/4 291/2/4
f 290/2/4 288/2/4 292/2/4
f 291/2/4 290/2/4 292/2/4
f 283/2/4 285/2/4 293/2/4
f 285/2/4 291/2/4 293/2/4
f 291/3/4 292/3/4 294/3/4
f 293/2/4 291/2/4 294/2/4
f 294/3/4 292/3/4 295/3/4
f 292/2/4 288/2/4 296/2/4
f 295/3/4 292/3/4 296/3/4
f 295/2/4 296/2/4 297/2/4
f 296/2/4 288/2/4 298/2/4
f 297/2/4 296/2/4 298/2/4
f 299/2/4 300/2/4 303/2/4
f 301/2/4 302/2/4 304/2/4
f 302/3/4 303/3/4 304/3/4
f 303/2/4 300/2/4 305/2/4
f 304/3/4 303/3/4 305/3/4
f 301/2/4 304/2/4 306/2/4
f 304/2/4 305/2/4 306/2/4
f 305/2/4 300/2/4 307/2/4
f 306/2/4 305/2/4 307/2/4
f 301/2/4 306/2/4 308/2/4
f 306/3/4 307/3/4 309/3/4
f 308/2/4 306/2/4 309/2/4
f 307/2/4 300/2/4 310/2/4
f 309/3/4 307/3/4 310/3/4
f 310/2/4 300/2/4 311/2/4
f 301/2/4 308/2/4 312/2/4
f 312/2/4 308/2/4 313/2/4
f 314/2/4 315/2/4 316/2/4
f 316/2/4 315/2/4 317/2/4
f 314/2/4 316/2/4 318/2/4
f 316/3/4 317/3/4 318/3/4
f 317/2/4 315/2/4 319/2/4
f 318/3/4 317/3/4 319/3/4
f 314/2/4 318/2/4 320/2/4
f 318/2/4 319/2/4 320/2/4
f 319/2/4 315/2/4 321/2/4
f 320/2/4 319/2/4 321/2/4
f 314/2/4 320/2/4 322/2/4
f 320/3/4 321/3/4 322/3/4
f 321/2/4 315/2/4 323/2/4
f 322/3/4 321/3/4 323/3/4
f 314/2/4 322/2/4 324/2/4
f 322/2/4 323/2/4 324/2/4
f 323/2/4 315/2/4 325/2/4
f 324/2/4 323/2/4 325/2/4
f 325/1/4 326/1/4 328/1/4
f 327/2/4 328/2/4 329/2/4
f 329/2/4 328/2/4 330/2/4
f 327/2/4 329/2/4 331/2/4
f 329/3/4 330/3/4 331/3/4
f 330/2/4 328/2/4 332/2/4
f 331/3/4 330/3/4 332/3/4
f 327/2/4 331/2/4 333/2/4
f 331/2/4 332/2/4 333/2/4
f 332/2/4 328/2/4 334/2/4
f 333/2/4 332/2/4 334/2/4
f 327/2/4 333/2/4 335/2/4
f 333/3/4 334/3/4 335/3/4
f 334/2/4 328/2/4 336/2/4
f 335/3/4 334/3/4 336/3/4
f 327/2/4 335/2/4 337/2/4
f 335/2/4 336/2/4 337/2/4
f 328/1/4 326/1/4 338/1/4
f 337/2/4 336/2/4 338/2/4
f 336/2/4 328/2/4 338/2/4
f 338/1/4 326/1/4 339/1/4
f 339/1/4 326/1/4 340/1/4
f 341/2/4 342/2/4 343/2/4
f 343/2/4 342/2/4 344/2/4
f 345/2/4 346/2/4 347/2/4
f 347/2/4 346/2/4 348/2/4
f 349/3/4 350/3/4 351/3/4
f 351/3/4 350/3/4 352/3/4
f 351/2/4 352/2/4 353/2/4
f 353/2/4 352/2/4 354/2/4
f 353/3/4 354/3/4 355/3/4
f 355/3/4 354/3/4 356/3/4
f 357/2/4 358/2/4 359/2/4
f 359/2/4 358/2/4 360/2/4
f 357/2/4 359/2/4 361/2/4
f 359/3/4 360/3/4 361/3/4
f 360/2/4 358/2/4 362/2/4
f 361/3/4 360/3/4 362/3/4
f 357/2/4 361/2/4 363/2/4
f 361/2/4 362/2/4 363/2/4
f 362/2/4 358/2/4 364/2/4
f 363/2/4 362/2/4 364/2/4
f 357/2/4 363/2/4 365/2/4
f 363/3/4 364/3/4 365/3/4
f 364/2/4 358/2/4 366/2/4
f 365/3/4 364/3/4 366/3/4
f 357/2/4 365/2/4 367/2/4
f 365/2/4 366/2/4 367/2/4
f 366/2/4 358/2/4 368/2/4
f 367/2/4 366/2/4 368/2/4
f 371/1/4 372/1/4 373/1/4
f 373/1/4 372/1/4 374/1/4
f 369/2/4 370/2/4 375/2/4
f 375/2/4 370/2/4 376/2/4
f 381/2/5 378/2/5 377/2/5
f 382/2/5 378/2/5 381/2/5
f 383/2/5 380/2/5 379/2/5
f 384/2/5 380/2/5 383/2/5
f 385/2/5 381/2/5 377/2/5
f 386/2/5 378/2/5 382/2/5
f 387/2/5 383/2/5 379/2/5
f 388/2/5 380/2/5 384/2/5
f 389/2/5 385/2/5 377/2/5
f 389/2/5 386/2/5 385/2/5
f 390/2/5 378/2/5 386/2/5
f 390/2/5 386/2/5 389/2/5
f 391/2/5 388/2/5 387/2/5
f 391/2/5 387/2/5 379/2/5
f 392/2/5 380/2/5 388/2/5
f 392/2/5 388/2/5 391/2/5
f 395/2/5 394/2/5 393/2/5
f 396/2/5 394/2/5 395/2/5
f 401/2/5 398/2/5 397/2/5
f 402/2/5 398/2/5 401/2/5
f 403/2/5 400/2/5 399/2/5
f 404/2/5 400/2/5 403/2/5
f 409/2/5 406/2/5 405/2/5
f 410/2/5 406/2/5 409/2/5
f 411/2/5 406/2/5 410/2/5
f 412/2/5 406/2/5 411/2/5
f 413/2/5 408/2/5 407/2/5
f 414/2/5 408/2/5 413/2/5
f 415/2/5 408/2/5 414/2/5
f 416/2/5 408/2/5 415/2/5
f 421/2/5 418/2/5 417/2/5
f 421/2/5 420/2/5 419/2/5
f 421/2/5 419/2/5 418/2/5
f 422/2/5 420/2/5 421/2/5
f 423/2/5 422/2/5 421/2/5
f 424/2/5 422/2/5 423/2/5
f 425/2/5 424/2/5 423/2/5
f 426/2/5 424/2/5 425/2/5
f 427/2/5 424/2/5 426/2/5
f 428/2/5 424/2/5 427/2/5
f 431/1/5 430/1/5 429/1/5
f 432/1/5 430/1/5 431/1/5
f 433/1/5 430/1/5 432/1/5
f 434/1/5 430/1/5 433/1/5
f 436/1/5 433/1/5 432/1/5
f 437/1/5 433/1/5 436/1/5
f 439/1/5 436/1/5 435/1/5
f 439/1/5 438/1/5 437/1/5
f 439/1/5 437/1/5 436/1/5
f 440/1/5 438/1/5 439/1/5
f 441/1/5 439/1/5 435/1/5
f 442/1/5 439/1/5 441/1/5
f 443/1/5 438/1/5 440/1/5
f 444/1/5 438/1/5 443/1/5
f 445/1/5 431/1/5 429/1/5
f 446/1/5 443/1/5 440/1/5
f 447/1/5 443/1/5 446/1/5
f 448/1/5 430/1/5 434/1/5
f 449/1/5 430/1/5 448/1/5
f 450/1/5 446/1/5 445/1/5
f 450/1/5 445/1/5 429/1/5
f 451/1/5 446/1/5 450/1/5
f 452/1/5 450/1/5 429/1/5
f 454/1/5 452/1/5 429/1/5
f 454/1/5 453/1/5 452/1/5
f 455/1/5 453/1/5 454/1/5
f 456/2/6 457/2/6 460/2/6
f 460/2/6 457/2/6 461/2/6
f 458/2/6 459/2/6 462/2/6
f 462/2/6 459/2/6 463/2/6
f 456/2/6 460/2/6 464/2/6
f 461/2/6 457/2/6 465/2/6
f 458/2/6 462/2/6 466/2/6
f 463/2/6 459/2/6 467/2/6
f 456/2/6 464/2/6 468/2/6
f 464/2/6 465/2/6 468/2/6
f 465/2/6 457/2/6 469/2/6
f 468/2/6 465/2/6 469/2/6
f 466/2/6 467/2/6 470/2/6
f 458/2/6 466/2/6 470/2/6
f 467/2/6 459/2/6 471/2/6
f 470/2/6 467/2/6 471/2/6
f 472/2/6 473/2/6 474/2/6
f 474/2/6 473/2/6 475/2/6
f 472/2/6 474/2/6 476/2/6
f 475/2/6 473/2/6 477/2/6
f 472/2/6 476/2/6 478/2/6
f 476/2/6 477/2/6 478/2/6
f 477/2/6 473/2/6 479/2/6
f 478/2/6 477/2/6 479/2/6
f 480/2/6 481/2/6 484/2/6
f 484/2/6 481/2/6 485/2/6
f 485/2/6 481/2/6 486/2/6
f 486/2/6 481/2/6 487/2/6
f 482/2/6 483/2/6 488/2/6
f 488/2/6 483/2/6 489/2/6
f 489/2/6 483/2/6 490/2/6
f 490/2/6 483/2/6 491/2/6
f 492/2/6 493/2/6 496/2/6
f 494/2/6 495/2/6 496/2/6
f 493/2/6 494/2/6 496/2/6
f 496/2/6 495/2/6 497/2/6
f 496/2/6 497/2/6 498/2/6
f 498/2/6 497/2/6 499/2/6
f 498/2/6 499/2/6 500/2/6
f 500/2/6 499/2/6 501/2/6
f 501/2/6 499/2/6 502/2/6
f 502/2/6 499/2/6 503/2/6
f 504/3/6 505/3/6 506/3/6
f 506/3/6 505/3/6 507/3/6
f 508/3/6 509/3/6 510/3/6
f 510/3/6 509/3/6 511/3/6
f 510/2/6 511/2/6 512/2/6
f 512/2/6 511/2/6 513/2/6
f 514/1/6 515/1/6 516/1/6
f 516/1/6 515/1/6 517/1/6
f 514/1/6 516/1/6 518/1/6
f 518/1/6 516/1/6 519/1/6
