# MagicaVoxel @ Ephtracy

# material
mtllib HibernationPineCone.mtl
usemtl palette

# normals
vn -1 0 0
vn 1 0 0
vn 0 0 1
vn 0 0 -1
vn 0 -1 0
vn 0 1 0

# texcoords
vt 0.310547 0.5
vt 0.650391 0.5
vt 0.958984 0.5
vt 0.974609 0.5

# verts
v -5 0 6
v -5 0 -4
v -5 10 6
v -5 10 -4
v -5 11 6
v -5 11 -4
v -4 11 5
v -4 11 -3
v -4 12 5
v -4 12 -3
v -3 6 4
v -3 6 -2
v -3 7 4
v -3 7 -2
v -3 12 4
v -3 12 -2
v -3 13 4
v -3 13 -2
v -2 5 2
v -2 5 1
v -2 6 2
v -2 6 1
v -2 8 3
v -2 8 -1
v -2 9 3
v -2 9 1
v -2 9 -0
v -2 9 -1
v -2 10 2
v -2 10 1
v -2 10 -0
v -2 11 2
v -2 11 1
v -2 13 3
v -2 13 -1
v -2 14 3
v -2 14 -1
v -1 0 2
v -1 0 -0
v -1 4 2
v -1 4 -0
v -1 5 1
v -1 5 -0
v -1 5 -2
v -1 6 2
v -1 6 1
v -1 6 -0
v -1 6 -2
v -1 7 2
v -1 7 1
v -1 9 2
v -1 9 1
v -1 9 -0
v -1 9 -1
v -1 10 3
v -1 10 2
v -1 10 1
v -1 10 -0
v -1 10 -1
v -1 11 3
v -1 11 2
v -1 11 1
v -1 11 -0
v -1 12 2
v -1 12 -0
v -1 14 2
v -1 14 -0
v -1 15 2
v -1 15 -0
v 0 4 2
v 0 4 -0
v 0 5 2
v 0 5 -0
v 0 6 -0
v 0 6 -2
v 0 7 2
v 0 7 -0
v 0 7 -2
v 0 8 2
v 0 8 -0
v 0 10 1
v 0 10 -0
v 0 10 -1
v 0 11 1
v 0 11 -0
v 0 11 -1
v 4 0 5
v 4 0 -3
v 4 1 5
v 4 1 -3
v -4 0 5
v -4 0 -3
v -4 4 5
v -4 4 -3
v -4 5 5
v -4 5 -3
v -4 10 5
v -4 10 -3
v -4 11 5
v -4 11 -3
v -3 11 4
v -3 11 -2
v -3 12 4
v -3 12 -2
v -2 6 2
v -2 6 1
v -2 7 2
v -2 7 1
v -2 12 3
v -2 12 -1
v -2 13 3
v -2 13 -1
v -1 4 2
v -1 4 -0
v -1 5 2
v -1 5 -0
v -1 6 -0
v -1 6 -2
v -1 7 -0
v -1 7 -2
v -1 13 2
v -1 13 -0
v -1 14 2
v -1 14 -0
v 0 5 -0
v 0 5 -2
v 0 6 -0
v 0 6 -2
v 0 9 -0
v 0 9 -1
v 0 10 -0
v 0 10 -1
v 1 0 2
v 1 0 -0
v 1 4 2
v 1 4 -0
v 1 5 2
v 1 5 -0
v 1 6 2
v 1 6 -0
v 1 7 2
v 1 7 -0
v 1 8 2
v 1 8 -0
v 1 9 2
v 1 9 -0
v 1 10 3
v 1 10 2
v 1 10 -0
v 1 10 -1
v 1 11 3
v 1 11 2
v 1 11 -0
v 1 11 -1
v 1 12 2
v 1 12 -0
v 2 8 3
v 2 8 -1
v 2 9 3
v 2 9 -1
v 2 10 2
v 2 10 -0
v 2 11 2
v 2 11 -0
v 3 6 4
v 3 6 -2
v 3 7 4
v 3 7 -2
v 4 4 5
v 4 4 -3
v 4 5 5
v 4 5 -3
v 5 0 6
v 5 0 -4
v 5 1 5
v 5 1 -3
v 5 10 6
v 5 10 5
v 5 10 -3
v 5 10 -4
v 5 11 6
v 5 11 5
v 5 11 4
v 5 11 -2
v 5 11 -3
v 5 11 -4
v 5 12 5
v 5 12 4
v 5 12 3
v 5 12 -1
v 5 12 -2
v 5 12 -3
v 5 13 4
v 5 13 3
v 5 13 2
v 5 13 -0
v 5 13 -1
v 5 13 -2
v 5 14 3
v 5 14 2
v 5 14 -0
v 5 14 -1
v 5 15 2
v 5 15 -0
v -5 0 6
v -5 10 6
v -5 11 6
v 5 0 6
v 5 10 6
v 5 11 6
v -4 11 5
v -4 12 5
v 5 11 5
v 5 12 5
v -3 6 4
v -3 7 4
v -3 12 4
v -3 13 4
v 3 6 4
v 3 7 4
v 5 12 4
v 5 13 4
v -2 8 3
v -2 9 3
v -2 13 3
v -2 14 3
v -1 10 3
v -1 11 3
v 1 10 3
v 1 11 3
v 2 8 3
v 2 9 3
v 5 13 3
v 5 14 3
v -2 5 2
v -2 6 2
v -2 10 2
v -2 11 2
v -1 0 2
v -1 4 2
v -1 5 2
v -1 6 2
v -1 9 2
v -1 10 2
v -1 11 2
v -1 12 2
v -1 14 2
v -1 15 2
v 0 7 2
v 0 8 2
v 1 0 2
v 1 4 2
v 1 5 2
v 1 6 2
v 1 7 2
v 1 8 2
v 1 9 2
v 1 10 2
v 1 11 2
v 1 12 2
v 2 10 2
v 2 11 2
v 5 14 2
v 5 15 2
v -2 6 1
v -2 7 1
v -2 9 1
v -2 10 1
v -1 6 1
v -1 7 1
v -1 9 1
v -1 10 1
v -1 4 -0
v -1 5 -0
v -1 13 -0
v -1 14 -0
v 0 4 -0
v 0 5 -0
v 5 13 -0
v 5 14 -0
v -2 12 -1
v -2 13 -1
v 5 12 -1
v 5 13 -1
v -3 11 -2
v -3 12 -2
v 5 11 -2
v 5 12 -2
v -4 0 -3
v -4 4 -3
v -4 5 -3
v -4 10 -3
v -4 11 -3
v 4 0 -3
v 4 1 -3
v 4 4 -3
v 4 5 -3
v 5 1 -3
v 5 10 -3
v 5 11 -3
v -4 0 5
v -4 4 5
v -4 5 5
v -4 10 5
v -4 11 5
v 4 0 5
v 4 1 5
v 4 4 5
v 4 5 5
v 5 1 5
v 5 10 5
v 5 11 5
v -3 11 4
v -3 12 4
v 5 11 4
v 5 12 4
v -2 12 3
v -2 13 3
v 5 12 3
v 5 13 3
v -2 6 2
v -2 7 2
v -1 4 2
v -1 5 2
v -1 6 2
v -1 7 2
v -1 13 2
v -1 14 2
v 0 4 2
v 0 5 2
v 5 13 2
v 5 14 2
v -2 5 1
v -2 6 1
v -2 10 1
v -2 11 1
v -1 5 1
v -1 6 1
v -1 10 1
v -1 11 1
v 0 10 1
v 0 11 1
v -2 9 -0
v -2 10 -0
v -1 0 -0
v -1 4 -0
v -1 6 -0
v -1 7 -0
v -1 9 -0
v -1 10 -0
v -1 11 -0
v -1 12 -0
v -1 14 -0
v -1 15 -0
v 0 5 -0
v 0 6 -0
v 0 7 -0
v 0 8 -0
v 0 9 -0
v 0 10 -0
v 0 11 -0
v 1 0 -0
v 1 4 -0
v 1 5 -0
v 1 6 -0
v 1 7 -0
v 1 8 -0
v 1 9 -0
v 1 10 -0
v 1 11 -0
v 1 12 -0
v 2 10 -0
v 2 11 -0
v 5 14 -0
v 5 15 -0
v -2 8 -1
v -2 9 -1
v -2 13 -1
v -2 14 -1
v -1 9 -1
v -1 10 -1
v 0 9 -1
v 0 10 -1
v 0 11 -1
v 1 10 -1
v 1 11 -1
v 2 8 -1
v 2 9 -1
v 5 13 -1
v 5 14 -1
v -3 6 -2
v -3 7 -2
v -3 12 -2
v -3 13 -2
v -1 5 -2
v -1 6 -2
v -1 7 -2
v 0 5 -2
v 0 6 -2
v 0 7 -2
v 3 6 -2
v 3 7 -2
v 5 12 -2
v 5 13 -2
v -4 11 -3
v -4 12 -3
v 5 11 -3
v 5 12 -3
v -5 0 -4
v -5 10 -4
v -5 11 -4
v 5 0 -4
v 5 10 -4
v 5 11 -4
v -5 0 6
v 5 0 6
v -4 0 5
v 4 0 5
v -1 0 2
v 1 0 2
v -1 0 -0
v 1 0 -0
v -4 0 -3
v 4 0 -3
v -5 0 -4
v 5 0 -4
v -4 4 5
v 4 4 5
v -1 4 2
v 1 4 2
v -1 4 -0
v 1 4 -0
v -4 4 -3
v 4 4 -3
v -1 5 2
v 0 5 2
v -1 5 -0
v 0 5 -0
v -3 6 4
v 3 6 4
v -2 6 2
v -1 6 2
v 1 6 2
v -2 6 1
v -1 6 1
v -1 6 -0
v 0 6 -0
v 1 6 -0
v -3 6 -2
v -1 6 -2
v 0 6 -2
v 3 6 -2
v -2 8 3
v 2 8 3
v -1 8 2
v 0 8 2
v 1 8 2
v -1 8 -0
v 0 8 -0
v 1 8 -0
v -2 8 -1
v 2 8 -1
v -1 10 3
v 1 10 3
v -2 10 2
v -1 10 2
v 1 10 2
v 2 10 2
v -2 10 1
v -1 10 1
v 0 10 -0
v 1 10 -0
v 2 10 -0
v 0 10 -1
v 1 10 -1
v -4 11 5
v 5 11 5
v -3 11 4
v 5 11 4
v -1 11 1
v 0 11 1
v -1 11 -0
v 0 11 -0
v -3 11 -2
v 5 11 -2
v -4 11 -3
v 5 11 -3
v -3 12 4
v 5 12 4
v -2 12 3
v 5 12 3
v -2 12 -1
v 5 12 -1
v -3 12 -2
v 5 12 -2
v -2 13 3
v 5 13 3
v -1 13 2
v 5 13 2
v -1 13 -0
v 5 13 -0
v -2 13 -1
v 5 13 -1
v -1 14 2
v 5 14 2
v -1 14 -0
v 5 14 -0
v 4 1 5
v 5 1 5
v 4 1 -3
v 5 1 -3
v -1 4 2
v 0 4 2
v -1 4 -0
v 0 4 -0
v -4 5 5
v 4 5 5
v -2 5 2
v -1 5 2
v 1 5 2
v -2 5 1
v -1 5 1
v -1 5 -0
v 0 5 -0
v 1 5 -0
v -1 5 -2
v 0 5 -2
v -4 5 -3
v 4 5 -3
v -2 6 2
v -1 6 2
v -2 6 1
v -1 6 1
v -1 6 -0
v 0 6 -0
v -1 6 -2
v 0 6 -2
v -3 7 4
v 3 7 4
v -2 7 2
v -1 7 2
v 0 7 2
v 1 7 2
v -2 7 1
v -1 7 1
v -1 7 -0
v 0 7 -0
v 1 7 -0
v -3 7 -2
v -1 7 -2
v 0 7 -2
v 3 7 -2
v -2 9 3
v 2 9 3
v -1 9 2
v 1 9 2
v -2 9 1
v -1 9 1
v -2 9 -0
v -1 9 -0
v 0 9 -0
v 1 9 -0
v -2 9 -1
v -1 9 -1
v 0 9 -1
v 2 9 -1
v -2 10 1
v -1 10 1
v 0 10 1
v -2 10 -0
v -1 10 -0
v 0 10 -0
v -1 10 -1
v 0 10 -1
v -5 11 6
v 5 11 6
v -4 11 5
v 5 11 5
v -1 11 3
v 1 11 3
v -2 11 2
v -1 11 2
v 1 11 2
v 2 11 2
v -2 11 1
v -1 11 1
v 0 11 -0
v 1 11 -0
v 2 11 -0
v 0 11 -1
v 1 11 -1
v -4 11 -3
v 5 11 -3
v -5 11 -4
v 5 11 -4
v -4 12 5
v 5 12 5
v -3 12 4
v 5 12 4
v -1 12 2
v 1 12 2
v -1 12 -0
v 1 12 -0
v -3 12 -2
v 5 12 -2
v -4 12 -3
v 5 12 -3
v -3 13 4
v 5 13 4
v -2 13 3
v 5 13 3
v -2 13 -1
v 5 13 -1
v -3 13 -2
v 5 13 -2
v -2 14 3
v 5 14 3
v -1 14 2
v 5 14 2
v -1 14 -0
v 5 14 -0
v -2 14 -1
v 5 14 -1
v -1 15 2
v 5 15 2
v -1 15 -0
v 5 15 -0

# faces
f 3/3/1 2/3/1 1/3/1
f 4/3/1 2/3/1 3/3/1
f 5/4/1 4/4/1 3/4/1
f 6/4/1 4/4/1 5/4/1
f 9/4/1 8/4/1 7/4/1
f 10/4/1 8/4/1 9/4/1
f 13/2/1 12/2/1 11/2/1
f 14/2/1 12/2/1 13/2/1
f 17/4/1 16/4/1 15/4/1
f 18/4/1 16/4/1 17/4/1
f 21/2/1 20/2/1 19/2/1
f 22/2/1 20/2/1 21/2/1
f 25/2/1 24/2/1 23/2/1
f 26/2/1 24/2/1 25/2/1
f 27/2/1 24/2/1 26/2/1
f 28/2/1 24/2/1 27/2/1
f 30/2/1 27/2/1 26/2/1
f 31/2/1 27/2/1 30/2/1
f 32/2/1 30/2/1 29/2/1
f 33/2/1 30/2/1 32/2/1
f 36/4/1 35/4/1 34/4/1
f 37/4/1 35/4/1 36/4/1
f 40/1/1 39/1/1 38/1/1
f 41/1/1 39/1/1 40/1/1
f 46/1/1 43/1/1 42/1/1
f 47/2/1 44/2/1 43/2/1
f 47/1/1 43/1/1 46/1/1
f 48/2/1 44/2/1 47/2/1
f 49/1/1 46/1/1 45/1/1
f 50/1/1 46/1/1 49/1/1
f 56/1/1 52/1/1 51/1/1
f 57/1/1 52/1/1 56/1/1
f 58/2/1 54/2/1 53/2/1
f 59/2/1 54/2/1 58/2/1
f 60/2/1 56/2/1 55/2/1
f 61/2/1 56/2/1 60/2/1
f 64/2/1 63/2/1 62/2/1
f 64/2/1 62/2/1 61/2/1
f 65/2/1 63/2/1 64/2/1
f 68/4/1 67/4/1 66/4/1
f 69/4/1 67/4/1 68/4/1
f 72/1/1 71/1/1 70/1/1
f 73/1/1 71/1/1 72/1/1
f 77/2/1 75/2/1 74/2/1
f 78/2/1 75/2/1 77/2/1
f 79/1/1 77/1/1 76/1/1
f 80/1/1 77/1/1 79/1/1
f 84/1/1 82/1/1 81/1/1
f 85/2/1 83/2/1 82/2/1
f 85/1/1 82/1/1 84/1/1
f 86/2/1 83/2/1 85/2/1
f 89/3/1 88/3/1 87/3/1
f 90/3/1 88/3/1 89/3/1
f 91/3/2 92/3/2 93/3/2
f 93/3/2 92/3/2 94/3/2
f 95/3/2 96/3/2 97/3/2
f 97/3/2 96/3/2 98/3/2
f 97/4/2 98/4/2 99/4/2
f 99/4/2 98/4/2 100/4/2
f 101/4/2 102/4/2 103/4/2
f 103/4/2 102/4/2 104/4/2
f 105/2/2 106/2/2 107/2/2
f 107/2/2 106/2/2 108/2/2
f 109/4/2 110/4/2 111/4/2
f 111/4/2 110/4/2 112/4/2
f 113/2/2 114/2/2 115/2/2
f 115/2/2 114/2/2 116/2/2
f 117/2/2 118/2/2 119/2/2
f 119/2/2 118/2/2 120/2/2
f 121/4/2 122/4/2 123/4/2
f 123/4/2 122/4/2 124/4/2
f 125/2/2 126/2/2 127/2/2
f 127/2/2 126/2/2 128/2/2
f 129/2/2 130/2/2 131/2/2
f 131/2/2 130/2/2 132/2/2
f 133/1/2 134/1/2 135/1/2
f 135/1/2 134/1/2 136/1/2
f 137/1/2 138/1/2 139/1/2
f 139/1/2 138/1/2 140/1/2
f 141/1/2 142/1/2 143/1/2
f 143/1/2 142/1/2 144/1/2
f 145/1/2 146/1/2 148/1/2
f 148/1/2 146/1/2 149/1/2
f 147/2/2 148/2/2 151/2/2
f 151/2/2 148/2/2 152/2/2
f 149/2/2 150/2/2 153/2/2
f 153/2/2 150/2/2 154/2/2
f 152/2/2 153/2/2 155/2/2
f 155/2/2 153/2/2 156/2/2
f 157/2/2 158/2/2 159/2/2
f 159/2/2 158/2/2 160/2/2
f 161/2/2 162/2/2 163/2/2
f 163/2/2 162/2/2 164/2/2
f 165/2/2 166/2/2 167/2/2
f 167/2/2 166/2/2 168/2/2
f 169/2/2 170/2/2 171/2/2
f 171/2/2 170/2/2 172/2/2
f 173/3/2 174/3/2 175/3/2
f 175/3/2 174/3/2 176/3/2
f 173/3/2 175/3/2 177/3/2
f 177/3/2 175/3/2 178/3/2
f 176/3/2 174/3/2 179/3/2
f 179/3/2 174/3/2 180/3/2
f 177/4/2 178/4/2 181/4/2
f 181/4/2 178/4/2 182/4/2
f 179/4/2 180/4/2 185/4/2
f 185/4/2 180/4/2 186/4/2
f 182/4/2 183/4/2 187/4/2
f 187/4/2 183/4/2 188/4/2
f 184/4/2 185/4/2 191/4/2
f 191/4/2 185/4/2 192/4/2
f 188/4/2 189/4/2 193/4/2
f 193/4/2 189/4/2 194/4/2
f 190/4/2 191/4/2 197/4/2
f 197/4/2 191/4/2 198/4/2
f 194/4/2 195/4/2 199/4/2
f 199/4/2 195/4/2 200/4/2
f 196/4/2 197/4/2 201/4/2
f 201/4/2 197/4/2 202/4/2
f 200/4/2 201/4/2 203/4/2
f 203/4/2 201/4/2 204/4/2
f 208/3/3 206/3/3 205/3/3
f 209/4/3 207/4/3 206/4/3
f 209/3/3 206/3/3 208/3/3
f 210/4/3 207/4/3 209/4/3
f 213/4/3 212/4/3 211/4/3
f 214/4/3 212/4/3 213/4/3
f 219/2/3 216/2/3 215/2/3
f 220/2/3 216/2/3 219/2/3
f 221/4/3 218/4/3 217/4/3
f 222/4/3 218/4/3 221/4/3
f 229/2/3 228/2/3 227/2/3
f 230/2/3 228/2/3 229/2/3
f 231/2/3 224/2/3 223/2/3
f 232/2/3 224/2/3 231/2/3
f 233/4/3 226/4/3 225/4/3
f 234/4/3 226/4/3 233/4/3
f 241/2/3 236/2/3 235/2/3
f 242/2/3 236/2/3 241/2/3
f 244/2/3 238/2/3 237/2/3
f 245/2/3 238/2/3 244/2/3
f 251/1/3 240/1/3 239/1/3
f 252/1/3 240/1/3 251/1/3
f 253/1/3 242/1/3 241/1/3
f 254/1/3 242/1/3 253/1/3
f 255/1/3 250/1/3 249/1/3
f 256/1/3 250/1/3 255/1/3
f 257/1/3 244/1/3 243/1/3
f 258/1/3 244/1/3 257/1/3
f 259/2/3 246/2/3 245/2/3
f 260/2/3 246/2/3 259/2/3
f 261/2/3 259/2/3 258/2/3
f 262/2/3 259/2/3 261/2/3
f 263/4/3 248/4/3 247/4/3
f 264/4/3 248/4/3 263/4/3
f 269/2/3 266/2/3 265/2/3
f 270/2/3 266/2/3 269/2/3
f 271/2/3 268/2/3 267/2/3
f 272/2/3 268/2/3 271/2/3
f 277/2/3 274/2/3 273/2/3
f 278/2/3 274/2/3 277/2/3
f 279/4/3 276/4/3 275/4/3
f 280/4/3 276/4/3 279/4/3
f 283/4/3 282/4/3 281/4/3
f 284/4/3 282/4/3 283/4/3
f 287/4/3 286/4/3 285/4/3
f 288/4/3 286/4/3 287/4/3
f 294/3/3 290/3/3 289/3/3
f 295/3/3 290/3/3 294/3/3
f 296/3/3 290/3/3 295/3/3
f 297/3/3 292/3/3 291/3/3
f 298/3/3 296/3/3 295/3/3
f 298/3/3 297/3/3 296/3/3
f 299/4/3 293/4/3 292/4/3
f 299/3/3 297/3/3 298/3/3
f 299/3/3 292/3/3 297/3/3
f 300/4/3 293/4/3 299/4/3
f 301/3/4 302/3/4 306/3/4
f 306/3/4 302/3/4 307/3/4
f 307/3/4 302/3/4 308/3/4
f 303/3/4 304/3/4 309/3/4
f 307/3/4 308/3/4 310/3/4
f 308/3/4 309/3/4 310/3/4
f 304/4/4 305/4/4 311/4/4
f 310/3/4 309/3/4 311/3/4
f 309/3/4 304/3/4 311/3/4
f 311/4/4 305/4/4 312/4/4
f 313/4/4 314/4/4 315/4/4
f 315/4/4 314/4/4 316/4/4
f 317/4/4 318/4/4 319/4/4
f 319/4/4 318/4/4 320/4/4
f 321/2/4 322/2/4 325/2/4
f 325/2/4 322/2/4 326/2/4
f 323/2/4 324/2/4 329/2/4
f 329/2/4 324/2/4 330/2/4
f 327/4/4 328/4/4 331/4/4
f 331/4/4 328/4/4 332/4/4
f 333/2/4 334/2/4 337/2/4
f 337/2/4 334/2/4 338/2/4
f 335/2/4 336/2/4 339/2/4
f 339/2/4 336/2/4 340/2/4
f 339/1/4 340/1/4 341/1/4
f 341/1/4 340/1/4 342/1/4
f 343/2/4 344/2/4 349/2/4
f 349/2/4 344/2/4 350/2/4
f 347/1/4 348/1/4 356/1/4
f 356/1/4 348/1/4 357/1/4
f 351/2/4 352/2/4 361/2/4
f 345/1/4 346/1/4 362/1/4
f 362/1/4 346/1/4 363/1/4
f 355/1/4 356/1/4 364/1/4
f 364/1/4 356/1/4 365/1/4
f 357/1/4 358/1/4 366/1/4
f 366/1/4 358/1/4 367/1/4
f 359/1/4 360/1/4 368/1/4
f 368/1/4 360/1/4 369/1/4
f 361/2/4 352/2/4 370/2/4
f 370/2/4 352/2/4 371/2/4
f 369/2/4 370/2/4 372/2/4
f 372/2/4 370/2/4 373/2/4
f 353/4/4 354/4/4 374/4/4
f 374/4/4 354/4/4 375/4/4
f 376/2/4 377/2/4 380/2/4
f 376/2/4 380/2/4 382/2/4
f 380/2/4 381/2/4 382/2/4
f 382/2/4 381/2/4 383/2/4
f 383/2/4 384/2/4 385/2/4
f 385/2/4 384/2/4 386/2/4
f 376/2/4 382/2/4 387/2/4
f 387/2/4 382/2/4 388/2/4
f 378/4/4 379/4/4 389/4/4
f 389/4/4 379/4/4 390/4/4
f 391/2/4 392/2/4 396/2/4
f 396/2/4 392/2/4 397/2/4
f 395/2/4 396/2/4 398/2/4
f 398/2/4 396/2/4 399/2/4
f 399/2/4 400/2/4 401/2/4
f 401/2/4 400/2/4 402/2/4
f 393/4/4 394/4/4 403/4/4
f 403/4/4 394/4/4 404/4/4
f 405/4/4 406/4/4 407/4/4
f 407/4/4 406/4/4 408/4/4
f 409/3/4 410/3/4 412/3/4
f 410/4/4 411/4/4 413/4/4
f 412/3/4 410/3/4 413/3/4
f 413/4/4 411/4/4 414/4/4
f 417/3/5 416/3/5 415/3/5
f 418/3/5 416/3/5 417/3/5
f 421/1/5 420/1/5 419/1/5
f 422/1/5 420/1/5 421/1/5
f 423/3/5 417/3/5 415/3/5
f 424/3/5 416/3/5 418/3/5
f 425/3/5 423/3/5 415/3/5
f 425/3/5 424/3/5 423/3/5
f 426/3/5 416/3/5 424/3/5
f 426/3/5 424/3/5 425/3/5
f 429/2/5 428/2/5 427/2/5
f 430/2/5 428/2/5 429/2/5
f 431/2/5 429/2/5 427/2/5
f 432/2/5 428/2/5 430/2/5
f 433/2/5 431/2/5 427/2/5
f 433/2/5 432/2/5 431/2/5
f 434/2/5 428/2/5 432/2/5
f 434/2/5 432/2/5 433/2/5
f 437/1/5 436/1/5 435/1/5
f 438/1/5 436/1/5 437/1/5
f 441/2/5 440/2/5 439/2/5
f 442/2/5 440/2/5 441/2/5
f 443/2/5 440/2/5 442/2/5
f 444/2/5 441/2/5 439/2/5
f 446/2/5 445/2/5 444/2/5
f 448/2/5 440/2/5 443/2/5
f 449/2/5 446/2/5 444/2/5
f 449/2/5 444/2/5 439/2/5
f 450/2/5 446/2/5 449/2/5
f 451/2/5 448/2/5 447/2/5
f 452/2/5 440/2/5 448/2/5
f 452/2/5 448/2/5 451/2/5
f 455/2/5 454/2/5 453/2/5
f 456/2/5 454/2/5 455/2/5
f 457/2/5 454/2/5 456/2/5
f 458/2/5 455/2/5 453/2/5
f 458/1/5 456/1/5 455/1/5
f 459/1/5 456/1/5 458/1/5
f 460/2/5 454/2/5 457/2/5
f 461/2/5 459/2/5 458/2/5
f 461/2/5 460/2/5 459/2/5
f 461/2/5 458/2/5 453/2/5
f 462/2/5 454/2/5 460/2/5
f 462/2/5 460/2/5 461/2/5
f 466/2/5 464/2/5 463/2/5
f 467/2/5 464/2/5 466/2/5
f 469/2/5 466/2/5 465/2/5
f 470/2/5 466/2/5 469/2/5
f 472/2/5 468/2/5 467/2/5
f 473/2/5 468/2/5 472/2/5
f 474/2/5 472/2/5 471/2/5
f 475/2/5 472/2/5 474/2/5
f 478/4/5 477/4/5 476/4/5
f 479/4/5 477/4/5 478/4/5
f 482/2/5 481/2/5 480/2/5
f 483/2/5 481/2/5 482/2/5
f 484/4/5 478/4/5 476/4/5
f 486/4/5 484/4/5 476/4/5
f 486/4/5 485/4/5 484/4/5
f 487/4/5 485/4/5 486/4/5
f 490/4/5 489/4/5 488/4/5
f 491/4/5 489/4/5 490/4/5
f 492/4/5 490/4/5 488/4/5
f 494/4/5 492/4/5 488/4/5
f 494/4/5 493/4/5 492/4/5
f 495/4/5 493/4/5 494/4/5
f 498/4/5 497/4/5 496/4/5
f 499/4/5 497/4/5 498/4/5
f 500/4/5 498/4/5 496/4/5
f 502/4/5 500/4/5 496/4/5
f 502/4/5 501/4/5 500/4/5
f 503/4/5 501/4/5 502/4/5
f 506/4/5 505/4/5 504/4/5
f 507/4/5 505/4/5 506/4/5
f 508/3/6 509/3/6 510/3/6
f 510/3/6 509/3/6 511/3/6
f 512/1/6 513/1/6 514/1/6
f 514/1/6 513/1/6 515/1/6
f 516/2/6 517/2/6 518/2/6
f 518/2/6 517/2/6 519/2/6
f 519/2/6 517/2/6 520/2/6
f 516/2/6 518/2/6 521/2/6
f 521/2/6 522/2/6 523/2/6
f 520/2/6 517/2/6 525/2/6
f 521/2/6 523/2/6 526/2/6
f 524/2/6 525/2/6 527/2/6
f 521/2/6 526/2/6 528/2/6
f 526/2/6 527/2/6 528/2/6
f 516/2/6 521/2/6 528/2/6
f 527/2/6 525/2/6 529/2/6
f 528/2/6 527/2/6 529/2/6
f 525/2/6 517/2/6 529/2/6
f 530/2/6 531/2/6 532/2/6
f 532/2/6 531/2/6 533/2/6
f 534/2/6 535/2/6 536/2/6
f 536/2/6 535/2/6 537/2/6
f 538/2/6 539/2/6 540/2/6
f 540/2/6 539/2/6 541/2/6
f 541/2/6 539/2/6 542/2/6
f 542/2/6 539/2/6 543/2/6
f 538/2/6 540/2/6 544/2/6
f 541/1/6 542/1/6 545/1/6
f 545/1/6 542/1/6 546/1/6
f 544/2/6 545/2/6 546/2/6
f 546/1/6 542/1/6 547/1/6
f 543/2/6 539/2/6 548/2/6
f 538/2/6 544/2/6 549/2/6
f 544/2/6 546/2/6 549/2/6
f 549/2/6 546/2/6 550/2/6
f 547/2/6 548/2/6 551/2/6
f 548/2/6 539/2/6 552/2/6
f 551/2/6 548/2/6 552/2/6
f 553/2/6 554/2/6 555/2/6
f 555/2/6 554/2/6 556/2/6
f 553/2/6 555/2/6 557/2/6
f 557/2/6 555/2/6 558/2/6
f 556/2/6 554/2/6 562/2/6
f 559/2/6 560/2/6 563/2/6
f 563/2/6 560/2/6 564/2/6
f 561/2/6 562/2/6 565/2/6
f 562/2/6 554/2/6 566/2/6
f 565/2/6 562/2/6 566/2/6
f 567/2/6 568/2/6 570/2/6
f 568/1/6 569/1/6 571/1/6
f 570/2/6 568/2/6 571/2/6
f 571/1/6 569/1/6 572/1/6
f 571/2/6 572/2/6 573/2/6
f 573/2/6 572/2/6 574/2/6
f 575/4/6 576/4/6 577/4/6
f 577/4/6 576/4/6 578/4/6
f 579/2/6 580/2/6 582/2/6
f 582/2/6 580/2/6 583/2/6
f 581/2/6 582/2/6 585/2/6
f 585/2/6 582/2/6 586/2/6
f 583/2/6 584/2/6 588/2/6
f 588/2/6 584/2/6 589/2/6
f 587/2/6 588/2/6 590/2/6
f 590/2/6 588/2/6 591/2/6
f 575/4/6 577/4/6 592/4/6
f 575/4/6 592/4/6 594/4/6
f 592/4/6 593/4/6 594/4/6
f 594/4/6 593/4/6 595/4/6
f 596/4/6 597/4/6 598/4/6
f 598/4/6 597/4/6 599/4/6
f 600/2/6 601/2/6 602/2/6
f 602/2/6 601/2/6 603/2/6
f 596/4/6 598/4/6 604/4/6
f 596/4/6 604/4/6 606/4/6
f 604/4/6 605/4/6 606/4/6
f 606/4/6 605/4/6 607/4/6
f 608/4/6 609/4/6 610/4/6
f 610/4/6 609/4/6 611/4/6
f 608/4/6 610/4/6 612/4/6
f 608/4/6 612/4/6 614/4/6
f 612/4/6 613/4/6 614/4/6
f 614/4/6 613/4/6 615/4/6
f 616/4/6 617/4/6 618/4/6
f 618/4/6 617/4/6 619/4/6
f 616/4/6 618/4/6 620/4/6
f 616/4/6 620/4/6 622/4/6
f 620/4/6 621/4/6 622/4/6
f 622/4/6 621/4/6 623/4/6
f 624/4/6 625/4/6 626/4/6
f 626/4/6 625/4/6 627/4/6
